<svg width="16" height="16" viewBox="0 0 16 16" fill="none" xmlns="http://www.w3.org/2000/svg">
<path d="M11.0859 11.014C9.96091 13.314 7.99091 14.8615 5.38466 15.3703C4.98505 15.4682 4.57482 15.5161 4.16341 15.5128C2.66341 15.5128 1.28841 14.8878 0.620906 13.864C-0.275344 12.5003 -0.580343 9.60902 2.37466 7.47027C2.43466 7.79652 2.55716 8.24402 2.63841 8.50902C2.05832 8.93998 1.5835 9.49686 1.24966 10.1378C0.699656 11.2178 0.760906 12.2965 1.41216 13.294C1.86216 13.9665 2.57466 14.3753 3.49091 14.5003C4.63533 14.6451 5.79632 14.4265 6.80966 13.8753C8.39841 13.0403 9.45716 12.0428 10.1497 10.679C9.95384 10.4767 9.83794 10.2102 9.82341 9.92902C9.81294 9.62726 9.92262 9.33366 10.1284 9.11267C10.3341 8.89168 10.6192 8.76135 10.9209 8.75027H10.9634C11.2569 8.7488 11.5397 8.86022 11.7534 9.06146C11.967 9.2627 12.0951 9.53837 12.1112 9.83143C12.1272 10.1245 12.03 10.4125 11.8396 10.6359C11.6493 10.8593 11.3803 11.0009 11.0884 11.0315L11.0859 11.014ZM14.6697 8.48902C16.1959 10.219 16.2372 12.2553 15.6472 13.4365C15.0972 14.5153 13.6472 15.5953 11.6972 15.5953C10.7869 15.5766 9.89139 15.3613 9.07216 14.964C9.35841 14.7603 9.76466 14.434 9.98841 14.2303C10.6201 14.5041 11.3 14.6494 11.9884 14.6578C13.2509 14.6578 14.2072 14.0678 14.7772 12.989C15.1434 12.2765 15.1647 11.4415 14.8184 10.5865C14.3936 9.51071 13.6376 8.59794 12.6597 7.98027C11.3767 7.11545 9.86434 6.65442 8.31716 6.65652H7.95091C7.8655 6.85381 7.72657 7.02324 7.54983 7.14562C7.3731 7.26801 7.16562 7.33847 6.95091 7.34902H6.91216C6.61518 7.34537 6.33132 7.22609 6.12087 7.01652C5.91043 6.80694 5.78997 6.52358 5.78509 6.22662C5.78021 5.92966 5.89128 5.64249 6.09473 5.42611C6.29817 5.20973 6.57796 5.08118 6.87466 5.06777H6.91591C7.12266 5.06793 7.32538 5.12506 7.50179 5.23289C7.6782 5.34072 7.82149 5.49508 7.91591 5.67902H8.24216C10.8422 5.67902 13.1247 6.67652 14.6697 8.48902ZM4.32591 11.364C4.3044 11.1564 4.35469 10.9478 4.46841 10.7728C3.32841 8.79777 2.71841 6.29402 3.65466 3.68777C4.32591 1.72902 6.01591 0.405273 7.84841 0.405273C9.80341 0.405273 11.8397 2.11652 12.0834 5.41402C11.7784 5.31277 11.3334 5.16402 11.0659 5.10902C10.9997 4.03027 10.0884 1.34277 7.92966 1.38277C7.15591 1.40402 6.01591 1.77027 5.42966 2.52277C4.70456 3.42109 4.28271 4.52604 4.22466 5.67902C4.08716 7.26 4.45809 8.84357 5.28341 10.199C5.32896 10.1824 5.37753 10.1756 5.42591 10.179H5.46591C5.76825 10.1736 6.06039 10.2884 6.27805 10.4983C6.49571 10.7083 6.62106 10.9961 6.62653 11.2984C6.632 11.6007 6.51714 11.8929 6.30722 12.1105C6.09729 12.3282 5.8095 12.4536 5.50716 12.459H5.46591C5.17094 12.458 4.88777 12.3431 4.67539 12.1384C4.46301 11.9338 4.33782 11.655 4.32591 11.3603V11.364Z" fill="#764ABC"/>
</svg>
