<svg width="64" height="64" viewBox="0 0 64 64" fill="none" xmlns="http://www.w3.org/2000/svg">
<path d="M32.0002 34.5342L17.5335 44.8675C16.6446 45.4897 15.7228 45.567 14.7682 45.0995C13.8135 44.6319 13.3353 43.8435 13.3335 42.7342C13.3335 42.2897 13.4339 41.8675 13.6348 41.4675C13.8357 41.0675 14.1131 40.7564 14.4668 40.5342L32.0002 28.0008L49.5335 40.5342C49.8891 40.7564 50.1673 41.0675 50.3682 41.4675C50.5691 41.8675 50.6686 42.2897 50.6668 42.7342C50.6668 43.8008 50.1895 44.5786 49.2348 45.0675C48.2802 45.5564 47.3575 45.4897 46.4668 44.8675L32.0002 34.5342ZM32.0002 18.6675L17.5335 29.0008C16.6446 29.623 15.7228 29.7013 14.7682 29.2355C13.8135 28.7697 13.3353 27.9795 13.3335 26.8648C13.3335 26.4204 13.4339 25.9982 13.6348 25.5982C13.8357 25.1982 14.1131 24.887 14.4668 24.6648L32.0002 12.1342L49.5335 24.6675C49.8891 24.8897 50.1673 25.2008 50.3682 25.6008C50.5691 26.0008 50.6686 26.423 50.6668 26.8675C50.6668 27.9342 50.1895 28.7119 49.2348 29.2008C48.2802 29.6897 47.3575 29.623 46.4668 29.0008L32.0002 18.6675Z" fill="#B3B3B3"/>
</svg>
