<svg width="32" height="32" viewBox="0 0 32 32" fill="none" xmlns="http://www.w3.org/2000/svg">
<path d="M13.4398 14.4793C13.5065 14.0393 13.6532 13.6527 13.8398 13.3193C14.0265 12.986 14.2932 12.706 14.6265 12.4927C14.9465 12.2927 15.3465 12.1993 15.8398 12.186C16.1465 12.1993 16.4265 12.2527 16.6798 12.3594C16.9465 12.4794 17.1865 12.6393 17.3732 12.8393C17.5598 13.0393 17.7065 13.2793 17.8265 13.546C17.9465 13.8127 17.9998 14.106 18.0132 14.3993H20.3998C20.3732 13.7727 20.2532 13.1993 20.0265 12.6793C19.7998 12.1593 19.4932 11.706 19.0932 11.3327C18.6932 10.9593 18.2132 10.666 17.6532 10.4527C17.0932 10.2393 16.4798 10.146 15.7998 10.146C14.9332 10.146 14.1732 10.2927 13.5332 10.5993C12.8932 10.906 12.3598 11.306 11.9332 11.826C11.5065 12.346 11.1865 12.946 10.9865 13.6393C10.7865 14.3327 10.6665 15.0527 10.6665 15.826V16.186C10.6665 16.9593 10.7732 17.6793 10.9732 18.3727C11.1732 19.066 11.4932 19.666 11.9198 20.1727C12.3465 20.6793 12.8798 21.0927 13.5198 21.386C14.1598 21.6793 14.9198 21.8393 15.7865 21.8393C16.4132 21.8393 16.9998 21.7327 17.5465 21.5327C18.0932 21.3327 18.5732 21.0527 18.9865 20.6927C19.3998 20.3327 19.7332 19.9193 19.9732 19.4394C20.2132 18.9593 20.3598 18.4527 20.3732 17.906H17.9865C17.9732 18.186 17.9065 18.4394 17.7865 18.6793C17.6665 18.9193 17.5065 19.1194 17.3065 19.2927C17.1065 19.466 16.8798 19.5993 16.6132 19.6927C16.3598 19.786 16.0932 19.8127 15.8132 19.826C15.3332 19.8127 14.9332 19.7194 14.6265 19.5194C14.2932 19.306 14.0265 19.026 13.8398 18.6927C13.6532 18.3594 13.5065 17.9593 13.4398 17.5194C13.3732 17.0793 13.3332 16.626 13.3332 16.186V15.826C13.3332 15.3593 13.3732 14.9193 13.4398 14.4793ZM15.9998 2.66602C8.63984 2.66602 2.6665 8.63935 2.6665 15.9993C2.6665 23.3594 8.63984 29.3327 15.9998 29.3327C23.3598 29.3327 29.3332 23.3594 29.3332 15.9993C29.3332 8.63935 23.3598 2.66602 15.9998 2.66602ZM15.9998 26.666C10.1198 26.666 5.33317 21.8793 5.33317 15.9993C5.33317 10.1193 10.1198 5.33268 15.9998 5.33268C21.8798 5.33268 26.6665 10.1193 26.6665 15.9993C26.6665 21.8793 21.8798 26.666 15.9998 26.666Z" fill="#B3B3B3"/>
</svg>
