<svg width="64" height="64" viewBox="0 0 64 64" fill="none" xmlns="http://www.w3.org/2000/svg">
<path d="M32.0002 5.33398C28.4982 5.33398 25.0306 6.02374 21.7953 7.36386C18.5599 8.70399 15.6202 10.6682 13.144 13.1445C8.14301 18.1454 5.3335 24.9282 5.3335 32.0007C5.3335 43.7873 12.9868 53.7873 23.5735 57.334C24.9068 57.5473 25.3335 56.7207 25.3335 56.0007V51.494C17.9468 53.094 16.3735 47.9207 16.3735 47.9207C15.1468 44.8273 13.4135 44.0007 13.4135 44.0007C10.9868 42.3473 13.6002 42.4007 13.6002 42.4007C16.2668 42.5873 17.6802 45.1473 17.6802 45.1473C20.0002 49.2007 23.9202 48.0007 25.4402 47.3607C25.6802 45.6273 26.3735 44.454 27.1202 43.7873C21.2002 43.1207 14.9868 40.8273 14.9868 30.6673C14.9868 27.7073 16.0002 25.334 17.7335 23.4407C17.4668 22.774 16.5335 20.0007 18.0002 16.4007C18.0002 16.4007 20.2402 15.6807 25.3335 19.1207C27.4402 18.534 29.7335 18.2407 32.0002 18.2407C34.2668 18.2407 36.5602 18.534 38.6668 19.1207C43.7602 15.6807 46.0002 16.4007 46.0002 16.4007C47.4668 20.0007 46.5335 22.774 46.2668 23.4407C48.0002 25.334 49.0135 27.7073 49.0135 30.6673C49.0135 40.854 42.7735 43.094 36.8268 43.7607C37.7868 44.5873 38.6668 46.214 38.6668 48.694V56.0007C38.6668 56.7207 39.0935 57.574 40.4535 57.334C51.0402 53.7607 58.6668 43.7873 58.6668 32.0007C58.6668 28.4987 57.9771 25.0311 56.637 21.7958C55.2968 18.5604 53.3326 15.6207 50.8563 13.1445C48.3801 10.6682 45.4404 8.70399 42.2051 7.36386C38.9697 6.02374 35.5021 5.33398 32.0002 5.33398Z" fill="#B3B3B3"/>
</svg>
