<svg width="16" height="16" viewBox="0 0 16 16" fill="none" xmlns="http://www.w3.org/2000/svg">
<path d="M6.66667 8.33333C6.66667 7.78 7.11333 7.33333 7.66667 7.33333C8.22 7.33333 8.66667 7.78 8.66667 8.33333C8.66667 8.88667 8.22 9.33333 7.66667 9.33333C7.11333 9.33333 6.66667 8.88667 6.66667 8.33333ZM10.6667 6.66667V7C10.6667 7.26667 10.7733 7.50667 10.94 7.68667C11.3689 7.45772 11.8471 7.33646 12.3333 7.33333C12.9467 7.33333 13.5133 7.52667 14 7.84667C14 7.56667 13.9667 7.28 13.9133 7C13.7333 6.66667 13.3333 6.66667 13.3333 6.66667H12V6C12 5.33333 11.3333 5.33333 11.3333 5.33333H10V4.66667C10 4 9.33333 4 9.33333 4H8.66667V2.66667C8.66667 2 8 2 8 2C6.4087 2 4.88258 2.63214 3.75736 3.75736C2.63214 4.88258 2 6.4087 2 8C2 9.5913 2.63214 11.1174 3.75736 12.2426C4.88258 13.3679 6.4087 14 8 14C8.22667 14 8.44667 14 8.66667 13.96V12.6133C8.30667 12.6667 7.93333 12.6667 7.54667 12.64C8 12.5467 8.33333 12.1467 8.33333 11.6667C8.33333 11.1133 7.88667 10.6667 7.33333 10.6667C7.11931 10.6663 6.91082 10.7347 6.73862 10.8618C6.56642 10.9889 6.43961 11.168 6.37687 11.3726C6.31414 11.5772 6.31881 11.7966 6.39019 11.9984C6.46157 12.2002 6.59588 12.3737 6.77333 12.4933C5.02667 12.0267 3.66667 10.54 3.39333 8.74667C3.33333 8.40667 3.33333 8.07333 3.33333 7.74667C3.38 8.26 3.80667 8.66667 4.33333 8.66667C4.88667 8.66667 5.33333 8.22 5.33333 7.66667C5.33333 7.11333 4.88667 6.66667 4.33333 6.66667C3.88 6.66667 3.5 6.97333 3.38 7.38667C3.64667 5.33333 5.27333 3.66667 7.33333 3.38V4.33333C7.33333 4.88667 7.78 5.33333 8.33333 5.33333H8.66667V5.66667C8.66667 6.22 9.11333 6.66667 9.66667 6.66667H10.6667ZM7.33333 5C7.33333 4.44667 6.88667 4 6.33333 4C5.78 4 5.33333 4.44667 5.33333 5C5.33333 5.55333 5.78 6 6.33333 6C6.88667 6 7.33333 5.55333 7.33333 5ZM14.6667 11.3333V14C14.6667 14.3667 14.3667 14.6667 14 14.6667H10.6667C10.3 14.6667 10 14.3667 10 14V11.3333C10 10.9667 10.3 10.6667 10.6667 10.6667V10.3333C10.6667 9.89131 10.8423 9.46738 11.1548 9.15482C11.4674 8.84226 11.8913 8.66667 12.3333 8.66667C12.7754 8.66667 13.1993 8.84226 13.5118 9.15482C13.8244 9.46738 14 9.89131 14 10.3333V10.6667C14.3667 10.6667 14.6667 10.9667 14.6667 11.3333ZM13.3333 10.3333C13.3333 9.78 12.8867 9.33333 12.3333 9.33333C11.78 9.33333 11.3333 9.78 11.3333 10.3333V10.6667H13.3333V10.3333Z" fill="white"/>
</svg>
