<svg width="14" height="14" viewBox="0 0 14 14" fill="none" xmlns="http://www.w3.org/2000/svg">
<path d="M7.58317 11.083C7.58317 10.8847 7.6065 10.6922 7.63567 10.4997H2.33317V4.66634L6.99984 7.58301L11.6665 4.66634V7.63551C12.0865 7.70551 12.4773 7.85134 12.8332 8.05551V3.49967C12.8332 2.85801 12.3082 2.33301 11.6665 2.33301H2.33317C1.6915 2.33301 1.1665 2.85801 1.1665 3.49967V10.4997C1.1665 11.1413 1.6915 11.6663 2.33317 11.6663H7.63567C7.6065 11.4738 7.58317 11.2813 7.58317 11.083ZM11.6665 3.49967L6.99984 6.41634L2.33317 3.49967H11.6665ZM10.354 12.9263L8.74984 11.1763L9.4265 10.4997L10.354 11.4272L12.4482 9.33301L13.1248 10.1555L10.354 12.9263Z" fill="white"/>
</svg>
