<svg width="16" height="16" viewBox="0 0 16 16" fill="none" xmlns="http://www.w3.org/2000/svg">
<path d="M1.3335 7.99967C1.3335 4.85701 1.3335 3.28567 2.3095 2.30901C3.28683 1.33301 4.8575 1.33301 8.00016 1.33301C11.1428 1.33301 12.7142 1.33301 13.6902 2.30901C14.6668 3.28634 14.6668 4.85701 14.6668 7.99967C14.6668 11.1423 14.6668 12.7137 13.6902 13.6897C12.7148 14.6663 11.1428 14.6663 8.00016 14.6663C4.8575 14.6663 3.28616 14.6663 2.3095 13.6897C1.3335 12.7143 1.3335 11.1423 1.3335 7.99967Z" stroke="white"/>
<path d="M7.33333 7.99967C7.33333 8.4417 7.15774 8.86563 6.84518 9.17819C6.53262 9.49075 6.10869 9.66634 5.66667 9.66634C5.22464 9.66634 4.80072 9.49075 4.48816 9.17819C4.17559 8.86563 4 8.4417 4 7.99967C4 7.55765 4.17559 7.13372 4.48816 6.82116C4.80072 6.5086 5.22464 6.33301 5.66667 6.33301C6.10869 6.33301 6.53262 6.5086 6.84518 6.82116C7.15774 7.13372 7.33333 7.55765 7.33333 7.99967Z" stroke="white"/>
<path d="M7.3335 8H10.3335M10.3335 8H11.3335C11.5103 8 11.6799 8.07024 11.8049 8.19526C11.9299 8.32029 12.0002 8.48986 12.0002 8.66667V9.33333M10.3335 8V9" stroke="white" stroke-linecap="round"/>
</svg>
