<svg width="16" height="16" viewBox="0 0 16 16" fill="none" xmlns="http://www.w3.org/2000/svg">
<path d="M8.00016 14.6663C7.07794 14.6663 6.21127 14.4912 5.40016 14.141C4.58905 13.7908 3.8835 13.3159 3.2835 12.7163C2.6835 12.1168 2.20861 11.4112 1.85883 10.5997C1.50905 9.78812 1.33394 8.92145 1.3335 7.99967H2.66683C2.66683 8.73301 2.80572 9.42479 3.0835 10.075C3.36127 10.7252 3.74194 11.2919 4.2255 11.775C4.70905 12.2581 5.27572 12.6415 5.9255 12.925C6.57527 13.2086 7.26683 13.3501 8.00016 13.3497C9.48905 13.3497 10.7502 12.833 11.7835 11.7997C12.8168 10.7663 13.3335 9.50523 13.3335 8.01634C13.3335 6.52745 12.8168 5.26634 11.7835 4.23301C10.7502 3.19967 9.48905 2.68301 8.00016 2.68301C7.01127 2.68301 6.11394 2.92479 5.30816 3.40834C4.50238 3.8919 3.86638 4.53345 3.40016 5.33301H5.3335V6.66634H1.3335V2.66634H2.66683V3.99967C3.27794 3.18856 4.04461 2.54145 4.96683 2.05834C5.88905 1.57523 6.90016 1.33345 8.00016 1.33301C8.92239 1.33301 9.78905 1.50812 10.6002 1.85834C11.4113 2.20856 12.1168 2.68345 12.7168 3.28301C13.3168 3.88256 13.7919 4.58812 14.1422 5.39967C14.4924 6.21123 14.6673 7.0779 14.6668 7.99967C14.6664 8.92145 14.4913 9.78812 14.1415 10.5997C13.7917 11.4112 13.3168 12.1168 12.7168 12.7163C12.1168 13.3159 11.4113 13.791 10.6002 14.1417C9.78905 14.4923 8.92239 14.6672 8.00016 14.6663ZM6.66683 10.6663C6.47794 10.6663 6.31972 10.6023 6.19216 10.4743C6.06461 10.3463 6.00061 10.1881 6.00016 9.99967V7.99967C6.00016 7.81079 6.06416 7.65256 6.19216 7.52501C6.32016 7.39745 6.47839 7.33345 6.66683 7.33301V6.66634C6.66683 6.29967 6.7975 5.9859 7.05883 5.72501C7.32016 5.46412 7.63394 5.33345 8.00016 5.33301C8.36639 5.33256 8.68039 5.46323 8.94216 5.72501C9.20394 5.98679 9.33439 6.30056 9.3335 6.66634V7.33301C9.52239 7.33301 9.68083 7.39701 9.80883 7.52501C9.93683 7.65301 10.0006 7.81123 10.0002 7.99967V9.99967C10.0002 10.1886 9.93616 10.347 9.80816 10.475C9.68016 10.603 9.52194 10.6668 9.3335 10.6663H6.66683ZM7.3335 7.33301H8.66683V6.66634C8.66683 6.47745 8.60283 6.31923 8.47483 6.19167C8.34683 6.06412 8.18861 6.00012 8.00016 5.99967C7.81172 5.99923 7.6535 6.06323 7.5255 6.19167C7.3975 6.32012 7.3335 6.47834 7.3335 6.66634V7.33301Z" fill="white"/>
</svg>
