<svg width="16" height="16" viewBox="0 0 16 16" fill="none" xmlns="http://www.w3.org/2000/svg">
<path d="M7.99967 10.6667C9.10634 10.6667 9.99967 9.77333 9.99967 8.66667C9.99967 7.92 9.59301 7.26667 8.99967 6.92667L2.52634 3.18L6.21301 9.56667C6.54634 10.22 7.21967 10.6667 7.99967 10.6667ZM7.99967 2C6.79301 2 5.66634 2.33333 4.68634 2.88L6.08634 3.68667C6.66634 3.46 7.33301 3.33333 7.99967 3.33333C10.9463 3.33333 13.333 5.72 13.333 8.66667C13.333 10.14 12.7397 11.4733 11.773 12.4333H11.7663C11.7045 12.495 11.6555 12.5683 11.6221 12.6489C11.5886 12.7296 11.5714 12.816 11.5714 12.9033C11.5714 12.9906 11.5886 13.0771 11.6221 13.1577C11.6555 13.2384 11.7045 13.3117 11.7663 13.3733C12.0263 13.6333 12.453 13.6333 12.713 13.38C13.333 12.7617 13.8247 12.0271 14.1599 11.2182C14.4951 10.4094 14.6672 9.54224 14.6663 8.66667C14.6663 5 11.6663 2 7.99967 2ZM1.33301 8.66667C1.33301 10.5067 2.07967 12.1733 3.28634 13.38C3.54634 13.6333 3.96634 13.6333 4.22634 13.3733C4.28814 13.3117 4.33718 13.2384 4.37063 13.1577C4.40408 13.0771 4.4213 12.9906 4.4213 12.9033C4.4213 12.816 4.40408 12.7296 4.37063 12.6489C4.33718 12.5683 4.28814 12.495 4.22634 12.4333C3.73054 11.9396 3.33742 11.3525 3.06967 10.706C2.80192 10.0595 2.66484 9.3664 2.66634 8.66667C2.66634 8 2.79301 7.33333 3.02634 6.73333L2.21967 5.33333C1.66634 6.33333 1.33301 7.45333 1.33301 8.66667Z" fill="white"/>
</svg>
