<svg width="16" height="16" viewBox="0 0 16 16" fill="none" xmlns="http://www.w3.org/2000/svg">
<path d="M7.99984 10.6667C8.27317 10.6667 8.53984 10.6467 8.8065 10.6267C8.93317 10.12 9.1465 9.64 9.43984 9.22C8.97984 9.29333 8.49317 9.33333 7.99984 9.33333C6.3865 9.33333 4.8665 8.93333 3.99984 8.3V6.42667C4.97984 6.98 6.4065 7.33333 7.99984 7.33333C9.59317 7.33333 11.0198 6.98 11.9998 6.42667V7.46C12.3332 7.38 12.6665 7.33333 13.0332 7.33333C13.1332 7.33333 13.2332 7.33333 13.3332 7.35333V4.66667C13.3332 3.19333 10.9465 2 7.99984 2C5.05317 2 2.6665 3.19333 2.6665 4.66667V11.3333C2.6665 12.8067 5.05984 14 7.99984 14C8.43984 14 8.87317 13.9733 9.27984 13.92C9.0465 13.5267 8.87317 13.0933 8.77317 12.6267C8.5265 12.6667 8.27317 12.6667 7.99984 12.6667C5.41984 12.6667 3.99984 11.6667 3.99984 11.3333V9.84667C5.07317 10.3667 6.47984 10.6667 7.99984 10.6667ZM7.99984 3.33333C10.5798 3.33333 11.9998 4.33333 11.9998 4.66667C11.9998 5 10.5798 6 7.99984 6C5.41984 6 3.99984 5 3.99984 4.66667C3.99984 4.33333 5.41984 3.33333 7.99984 3.33333ZM15.3332 11.6667C15.3332 12.2133 15.1665 12.72 14.8865 13.14L14.1598 12.4133C14.2732 12.1867 14.3332 11.9333 14.3332 11.6667C14.3332 11.2246 14.1576 10.8007 13.845 10.4882C13.5325 10.1756 13.1085 10 12.6665 10V11L11.1665 9.5L12.6665 8V9C14.1398 9 15.3332 10.1933 15.3332 11.6667ZM12.6665 12.3333L14.1665 13.8333L12.6665 15.3333V14.3333C11.1932 14.3333 9.99984 13.14 9.99984 11.6667C9.99984 11.12 10.1665 10.6133 10.4465 10.1933L11.1732 10.92C11.0598 11.1467 10.9998 11.4 10.9998 11.6667C10.9998 12.1087 11.1754 12.5326 11.488 12.8452C11.8006 13.1577 12.2245 13.3333 12.6665 13.3333V12.3333Z" fill="white"/>
</svg>
