<svg width="16" height="16" viewBox="0 0 16 16" fill="none" xmlns="http://www.w3.org/2000/svg">
<path d="M8.00033 14.6663C6.45588 14.2775 5.18077 13.3912 4.17499 12.0077C3.16921 10.6241 2.66655 9.08812 2.66699 7.39967V3.33301L8.00033 1.33301L13.3337 3.33301V7.39967C13.3337 9.08856 12.831 10.6248 11.8257 12.0083C10.8203 13.3919 9.54521 14.2779 8.00033 14.6663ZM8.00033 13.2663C9.15588 12.8997 10.1114 12.1663 10.867 11.0663C11.6225 9.96634 12.0003 8.74412 12.0003 7.39967V4.24967L8.00033 2.74967L4.00033 4.24967V7.39967C4.00033 8.74412 4.3781 9.96634 5.13366 11.0663C5.88921 12.1663 6.84477 12.8997 8.00033 13.2663ZM6.66699 10.6663H9.33366C9.52255 10.6663 9.68099 10.6023 9.80899 10.4743C9.93699 10.3463 10.0008 10.1881 10.0003 9.99967V7.99967C10.0003 7.81079 9.93633 7.65256 9.80833 7.52501C9.68033 7.39745 9.5221 7.33345 9.33366 7.33301V6.66634C9.33366 6.29967 9.20321 5.9859 8.94233 5.72501C8.68144 5.46412 8.36744 5.33345 8.00033 5.33301C7.63321 5.33256 7.31944 5.46323 7.05899 5.72501C6.79855 5.98679 6.66788 6.30056 6.66699 6.66634V7.33301C6.4781 7.33301 6.31988 7.39701 6.19233 7.52501C6.06477 7.65301 6.00077 7.81123 6.00033 7.99967V9.99967C6.00033 10.1886 6.06433 10.347 6.19233 10.475C6.32033 10.603 6.47855 10.6668 6.66699 10.6663ZM7.33366 7.33301V6.66634C7.33366 6.47745 7.39766 6.31923 7.52566 6.19167C7.65366 6.06412 7.81188 6.00012 8.00033 5.99967C8.18877 5.99923 8.34721 6.06323 8.47566 6.19167C8.6041 6.32012 8.66788 6.47834 8.66699 6.66634V7.33301H7.33366Z" fill="white"/>
</svg>
