<svg width="64" height="64" viewBox="0 0 64 64" fill="none" xmlns="http://www.w3.org/2000/svg">
<path d="M49 0H15C6.71573 0 0 6.71573 0 15V49C0 57.2843 6.71573 64 15 64H49C57.2843 64 64 57.2843 64 49V15C64 6.71573 57.2843 0 49 0Z" fill="#242938"/>
<path d="M57 45.7344C56.2722 46.0101 55.4686 46.0096 54.7412 45.733C54.0138 45.4563 53.4129 44.9228 53.0522 44.2331C50.7865 40.8414 48.2845 37.6026 45.8797 34.2944L44.837 32.9044C41.9735 36.7409 39.11 40.4244 36.4967 44.2471C36.1564 44.9062 35.588 45.419 34.8975 45.6901C34.2071 45.9612 33.4416 45.972 32.7438 45.7206L43.4888 31.3059L33.4943 18.2809C34.2137 18.0211 35.0007 18.0175 35.7225 18.2708C36.4443 18.524 37.0566 19.0185 37.456 19.6709C39.7773 23.0629 42.349 26.3016 44.9065 29.7351C47.4783 26.3294 50.022 23.0766 52.399 19.7126C52.7412 19.0642 53.3099 18.5642 53.9968 18.3079C54.6837 18.0516 55.4409 18.0568 56.1242 18.3226L52.246 23.4659C50.5085 25.7594 48.7987 28.0669 46.9917 30.3049C46.8461 30.4352 46.7296 30.5948 46.6499 30.7733C46.5701 30.9518 46.5289 31.145 46.5289 31.3405C46.5289 31.5359 46.5701 31.7292 46.6499 31.9077C46.7296 32.0861 46.8461 32.2457 46.9917 32.3761C50.314 36.7826 53.6082 41.2029 57 45.7344ZM7 31.1251C7.292 29.7351 7.4725 28.2199 7.87575 26.8021C10.2805 18.2534 20.0803 14.6946 26.822 19.9909C30.7698 23.0909 31.7568 27.4834 31.5623 32.4319H9.3215C8.96 41.2726 15.3403 46.6104 23.4998 43.8859C24.8234 43.4124 26.0083 42.6168 26.9475 41.5708C27.8867 40.5248 28.5506 39.2614 28.8792 37.8946C29.3102 36.5046 30.0053 36.2684 31.3258 36.6714C31.1082 38.3636 30.5099 39.9845 29.5758 41.4122C28.6416 42.84 27.396 44.0373 25.9325 44.9144C23.5144 46.2369 20.7401 46.7609 18.0062 46.4114C15.2723 46.0619 12.719 44.8567 10.7115 42.9684C8.72538 40.7351 7.52445 37.9134 7.292 34.9339C7.292 34.4614 7.11125 33.9886 7.014 33.5439C7.0048 32.7376 7.00014 31.9314 7 31.1251ZM9.34925 30.5274H29.4632C29.338 24.1194 25.293 19.5739 19.8997 19.5324C13.8947 19.4489 9.5995 23.8969 9.33525 30.4996L9.34925 30.5274Z" fill="white"/>
</svg>
