<svg width="94" height="64" viewBox="0 0 94 64" fill="none" xmlns="http://www.w3.org/2000/svg">
<path d="M27.9357 42.2325L30.7891 51.4909C31.4302 53.5929 31.6975 55.0604 31.5904 55.8968C33.151 51.7171 34.2415 47.1624 34.8618 42.2325H38.2928C36.8174 50.2585 34.8719 56.0906 32.4564 59.7289C30.5745 62.5326 28.5129 63.9344 26.268 63.9344C25.6694 63.9344 24.9315 63.7535 24.0559 63.3945V61.4598C24.4837 61.5225 24.9856 61.5561 25.5629 61.5561C26.61 61.5558 27.4545 61.266 28.0965 60.6865C28.8654 59.9807 29.2503 59.1874 29.2503 58.308C29.2503 57.7077 28.9501 56.4755 28.3525 54.6116L24.3768 42.2325H27.9357ZM6.09735 36.542L11.3237 52.4881H11.356L16.6144 36.542H20.9107C21.8514 44.4501 22.4071 51.6858 22.5776 58.2444H18.9555C18.8279 52.1136 18.4753 46.3481 17.8977 40.9479H17.8662L12.3505 58.2444H9.59205L4.10969 40.9479H4.07741C3.67092 46.1342 3.41443 51.8997 3.30794 58.2444H0.00488281C0.218338 50.5277 0.752528 43.2943 1.60745 36.542H6.09735Z" fill="#00758F"/>
<path d="M64.6458 36.2199C70.2677 36.2199 73.0788 39.8116 73.0788 46.9915C73.0788 50.8931 72.2334 53.8403 70.5443 55.8312C70.2398 56.1951 69.9033 56.5094 69.549 56.8006L73.5275 58.7677L73.5237 58.7675L72.1111 61.2069L66.93 58.1838C66.071 58.4381 65.1266 58.5653 64.0966 58.5653C61.3361 58.5653 59.2742 57.7608 57.911 56.1538C56.4146 54.3761 55.6667 51.5775 55.6667 47.7628C55.6667 43.8832 56.5107 40.9473 58.2003 38.9538C59.7393 37.1302 61.8881 36.2199 64.6458 36.2199ZM47.43 36.2513C49.4393 36.2513 51.2663 36.7889 52.912 37.8604L52.0761 39.723C50.668 39.1245 49.2796 38.8239 47.9105 38.8239C46.7995 38.8239 45.9435 39.0913 45.3468 39.6293C44.7468 40.1626 44.3756 40.8488 44.3756 41.6854C44.3756 42.9709 45.2914 44.0857 46.9824 45.0275C47.5363 45.3303 48.0884 45.6366 48.6385 45.9464L48.7646 46.0174L48.8279 46.053L48.9543 46.124L49.0173 46.1595L49.1435 46.2307C50.4235 46.9523 51.628 47.6411 51.628 47.6411C53.3187 48.8413 54.1615 50.1209 54.1615 52.2285C54.1615 54.0691 53.4871 55.58 52.1425 56.7623C50.7971 57.9392 48.9895 58.5293 46.7258 58.5293C44.6087 58.5293 42.5568 57.8501 40.5693 56.503L41.4991 54.6387C43.2095 55.496 44.7572 55.9242 46.1471 55.9242C47.4505 55.9242 48.4709 55.6332 49.209 55.0585C49.9456 54.4795 50.387 53.6721 50.387 52.6483C50.387 51.3597 49.4906 50.2581 47.8463 49.334C47.3316 49.0497 46.8184 48.7626 46.3068 48.4727L46.1808 48.4014C45.9494 48.2706 45.7163 48.1382 45.488 48.0086L45.3642 47.9381C44.2538 47.3066 43.2938 46.7548 43.2938 46.7548C41.65 45.5524 40.8257 44.2623 40.8257 42.1365C40.8257 40.3784 41.4404 38.9574 42.6679 37.8764C43.8986 36.793 45.4859 36.2513 47.43 36.2513ZM79.6858 36.5417V55.5745H86.5146V58.2442H76.2225V36.5419L79.6858 36.5417ZM90.3091 55.5828V56.0339H89.5583V58.2418H88.9843V56.0339H88.2044V55.5828H90.3091ZM91.6954 55.5828L92.4163 57.3953L93.0785 55.5828H93.8922V58.2418H93.3512V56.2182L92.5975 58.2418H92.2074L91.4525 56.2182H91.4235V58.2418H90.9117V55.5828H91.6954ZM64.2922 38.8888C60.9793 38.8888 59.3219 41.623 59.3219 47.0878C59.3219 50.2181 59.7611 52.488 60.6378 53.9028C61.4498 55.2121 62.7216 55.8655 64.4533 55.8655C67.7662 55.8655 69.4234 53.11 69.4234 47.6016C69.4234 44.5152 68.9842 42.2647 68.1086 40.8492C67.2957 39.5428 66.0245 38.8888 64.2924 38.8888" fill="#F29111"/>
<path d="M55.6084 1.34475C56.7074 -1.35572 60.5502 0.689342 62.0414 1.63265C62.4069 1.86867 62.8261 2.36728 63.2452 2.55158C63.8989 2.57725 64.5521 2.62841 65.207 2.65574C66.4353 2.94438 67.5858 3.18021 68.5537 3.73145C73.0516 6.38039 75.9797 9.07976 78.6745 13.5385C79.2503 14.4829 79.538 15.5049 80.0084 16.5269C80.6612 18.0502 81.3948 19.6493 82.1525 21.0898C82.4917 21.7727 82.7542 22.532 83.2253 23.1088C83.4092 23.3725 83.9316 23.4502 84.2439 23.6078C85.1073 24.0547 86.1533 24.3939 86.9653 24.9184C88.4817 25.8639 89.9478 26.9906 91.2806 28.1441C91.7774 28.5893 92.1159 29.2196 92.5892 29.6905V29.9282C92.1691 30.0571 91.7505 30.1891 91.3314 30.2949C90.4162 30.53 89.6055 30.4769 88.7175 30.7121C88.1688 30.8713 87.4876 31.0813 86.9121 31.1346L86.9653 31.1882C87.3038 32.1555 89.1355 32.9422 89.9731 33.5208C90.9905 34.2551 91.9333 35.1455 92.6921 36.1683C92.9542 36.4292 93.2162 36.6667 93.477 36.9269C93.6593 37.1906 93.7106 37.5317 93.8951 37.7668V37.8464C93.6908 37.7743 93.5439 37.6368 93.4047 37.493L93.3217 37.4063C93.2386 37.3201 93.1548 37.2354 93.0593 37.1655C92.482 36.7712 91.9087 36.2996 91.3314 35.933C90.339 35.3033 89.1879 34.9378 88.1688 34.3057C87.5927 33.9387 87.0434 33.5208 86.4942 33.1009C85.9963 32.7328 85.448 32.0261 85.1352 31.5016C84.9509 31.2118 84.9256 30.8713 84.715 30.6617C84.7526 30.3116 85.0734 30.2076 85.397 30.1222L85.4715 30.1026C85.5832 30.0736 85.6925 30.0446 85.7878 30.0063C87.1474 29.429 88.7683 29.2196 90.8614 29.272C90.7826 28.7465 89.4747 28.0916 89.0571 27.7769C88.2191 27.1729 87.3317 26.5426 86.4427 25.9928C85.9716 25.7049 85.1597 25.4948 84.6378 25.2595C83.9316 24.9708 82.3621 24.6824 81.9708 24.1326C81.306 23.2659 80.8285 22.2322 80.3649 21.188L80.2387 20.9031L80.1122 20.6183C79.5642 19.3608 78.8835 18.0498 78.3343 16.7623C78.0471 16.1342 77.9153 15.583 77.6008 14.9806C75.6923 11.284 72.8677 8.18908 69.4431 6.01253C68.3177 5.30431 67.0628 4.64891 65.6775 4.20347C64.8925 3.96636 63.9503 4.09748 63.1139 3.91557H62.5633C62.0935 3.78316 61.7013 3.2851 61.3347 3.0225C60.5251 2.47272 59.7142 2.10358 58.7459 1.71132C58.4066 1.55398 57.4378 1.18759 57.0997 1.47605C56.8903 1.52868 56.7841 1.60771 56.7326 1.81787C56.5242 2.13145 56.7074 2.60384 56.8371 2.89303C57.2299 3.73108 57.7786 4.22915 58.2766 4.93737C58.7197 5.56545 59.27 6.27366 59.5841 6.95657C60.2619 8.42454 60.5775 10.0509 61.2056 11.5187C61.4385 12.0707 61.8069 12.6988 62.146 13.1967C62.4333 13.5919 62.9558 13.8776 63.1139 14.3778C63.4289 14.9023 62.6422 16.6329 62.4601 17.1825C61.7788 19.333 61.9109 22.3223 62.6954 24.1863L62.7372 24.2846L62.779 24.3842C63.0654 25.0669 63.3721 25.8021 64.1336 25.993C64.1861 25.9409 64.1336 25.9682 64.2376 25.9409C64.4219 24.4981 64.4738 23.1086 64.9711 21.9797C65.2585 21.2739 65.8323 20.7749 66.2256 20.1987C66.4879 20.3557 66.4879 20.829 66.6441 21.1422C66.9845 21.9546 67.35 22.8453 67.7695 23.66C68.6307 25.338 69.5997 26.9647 70.6976 28.4325C71.0653 28.9568 71.587 29.5339 72.0575 30.0061C72.2671 30.1889 72.5019 30.2946 72.6594 30.5299H72.7107V30.6091C71.9262 30.3199 71.4289 29.5082 70.8032 29.0344C69.6252 28.1437 68.2144 26.8061 67.4024 25.5226C67.0628 24.7858 66.6957 24.0796 66.3296 23.3464V23.2934C66.1732 23.5029 66.2256 23.7108 66.1473 24.0277C65.8077 25.338 66.0692 26.8327 64.8925 27.304C63.5586 27.856 62.5635 26.4133 62.146 25.7577C60.8117 23.5817 60.4462 19.9108 61.3871 16.9475C61.5962 16.2916 61.6246 15.5049 61.9895 14.9811C61.9107 14.5077 61.5458 14.3782 61.3347 14.0881C60.9687 13.5922 60.6553 13.0146 60.3686 12.4639C59.8181 11.3882 59.4264 10.1028 59.0085 8.94919C58.8248 8.47809 58.7721 8.00515 58.5889 7.55917C58.2764 6.87845 57.7004 6.19554 57.2561 5.59332C56.6544 4.72776 54.902 3.05019 55.6084 1.34475ZM64.1855 6.48217C64.2554 6.55222 64.3398 6.61347 64.427 6.6738L64.5323 6.74605C64.6726 6.84324 64.8085 6.94557 64.8917 7.08494C65.0238 7.26942 65.0483 7.45152 65.2064 7.63637C65.2064 8.26665 65.0238 8.68567 64.655 8.94681C64.655 8.94681 64.6299 8.97432 64.604 8.99999C64.395 8.57986 64.2118 8.16194 64.0012 7.74218C63.7419 7.37578 63.3754 7.08512 63.1641 6.66647H63.1133V6.61384C63.4289 6.5359 63.7419 6.48217 64.1855 6.48217Z" fill="#00758F"/>
</svg>
