<svg width="57" height="64" viewBox="0 0 57 64" fill="none" xmlns="http://www.w3.org/2000/svg">
<path d="M28.3499 63.8812C27.4697 63.8812 26.6481 63.6465 25.8852 63.2357L18.0796 58.5993C16.9059 57.9538 17.4927 57.719 17.8448 57.6017C19.4293 57.0735 19.7228 56.9561 21.366 56.0169C21.5422 55.8996 21.777 55.9583 21.9528 56.0756L27.9391 59.6556C28.1739 59.773 28.4673 59.773 28.6434 59.6556L52.0598 46.0989C52.2946 45.9816 52.4119 45.7468 52.4119 45.4534V18.3982C52.4119 18.1048 52.2946 17.8701 52.0598 17.7527L28.6434 4.25445C28.4086 4.13708 28.1152 4.13708 27.9391 4.25445L4.52266 17.7529C4.28792 17.8703 4.17055 18.1637 4.17055 18.3985V45.4534C4.17055 45.6881 4.28792 45.9816 4.52266 46.0989L10.9198 49.7961C14.3824 51.5566 16.5536 49.5027 16.5536 47.4487V20.7456C16.5536 20.3935 16.8472 20.0414 17.258 20.0414H20.2512C20.6033 20.0414 20.9554 20.3348 20.9554 20.7456V47.4485C20.9554 52.0848 18.4317 54.7843 14.0301 54.7843C12.6803 54.7843 11.624 54.7843 8.63106 53.3172L2.46868 49.7961C0.942868 48.9156 0.00390625 47.2724 0.00390625 45.5119V18.4571C0.00390625 16.6966 0.942868 15.0534 2.46868 14.1729L25.8852 0.616194C27.3523 -0.205398 29.3476 -0.205398 30.8147 0.616194L54.2312 14.1729C55.757 15.0532 56.6959 16.6964 56.6959 18.4571V45.5121C56.6959 47.2726 55.757 48.9158 54.2312 49.7961L30.8147 63.3532C30.0518 63.7054 29.1715 63.8814 28.3499 63.8814M35.5684 45.2773C25.2981 45.2773 23.1854 40.5825 23.1854 36.5917C23.1854 36.2396 23.4788 35.8875 23.8896 35.8875H26.9413C27.2934 35.8875 27.587 36.1222 27.587 36.4744C28.0565 39.5847 29.4063 41.1107 35.6271 41.1107C40.5569 41.1107 42.6698 39.9957 42.6698 37.3549C42.6698 35.8288 42.0829 34.7138 34.3947 33.9507C27.9978 33.3051 24.007 31.8967 24.007 26.7911C24.007 22.0371 27.9976 19.2203 34.6881 19.2203C42.2001 19.2203 45.8974 21.8024 46.3669 27.4364C46.3669 27.6125 46.3082 27.7886 46.1909 27.9646C46.0735 28.0819 45.8974 28.1993 45.7214 28.1993H42.6698C42.3761 28.1993 42.0829 27.9646 42.024 27.6711C41.3198 24.4435 39.5005 23.3871 34.6881 23.3871C29.2891 23.3871 28.6434 25.2651 28.6434 26.6735C28.6434 28.3756 29.4063 28.9035 36.6834 29.8425C43.9021 30.7815 47.3059 32.1314 47.3059 37.1786C47.2472 42.3431 43.0219 45.2773 35.5684 45.2773Z" fill="#539E43"/>
</svg>
