<svg width="235" height="248" viewBox="0 0 235 248" fill="none" xmlns="http://www.w3.org/2000/svg">
<path d="M89.5418 72.7877C88.654 73.646 87.946 74.6725 87.4591 75.8074C86.9722 76.9422 86.7163 78.1627 86.7061 79.3976C86.696 80.6324 86.9319 81.8569 87.4 82.9996C87.8682 84.1423 88.5592 85.1804 89.4328 86.0532C90.3064 86.9259 91.3451 87.616 92.4883 88.0831C93.6314 88.5501 94.8561 88.7849 96.091 88.7736C97.3258 88.7623 98.546 88.5051 99.6804 88.0172C100.815 87.5293 101.841 86.8203 102.698 85.9317L89.5418 72.7877ZM116.564 198.4C116.564 200.866 117.544 203.232 119.288 204.976C121.032 206.72 123.398 207.7 125.864 207.7C128.331 207.7 130.696 206.72 132.441 204.976C134.185 203.232 135.164 200.866 135.164 198.4H116.564ZM102.698 85.9317L131.637 56.9839L118.48 43.8337L89.5418 72.7877L102.698 85.9317ZM116.564 50.7436V198.4H135.164V50.7467L116.564 50.7436ZM131.637 56.9839C126.075 62.5453 116.564 58.6083 116.564 50.7436H135.164C135.164 42.0326 124.637 37.674 118.48 43.8337L131.637 56.9839Z" fill="#B3B3B3"/>
</svg>
