<svg width="246" height="246" viewBox="0 0 246 246" fill="none" xmlns="http://www.w3.org/2000/svg">
<path d="M92.25 39.9746C89.8034 39.9746 87.457 40.9465 85.7269 42.6765C83.9969 44.4066 83.025 46.753 83.025 49.1996C83.025 51.6462 83.9969 53.9926 85.7269 55.7227C87.457 57.4527 89.8034 58.4246 92.25 58.4246V39.9746ZM159.9 206.025C162.347 206.025 164.693 205.053 166.423 203.323C168.153 201.593 169.125 199.246 169.125 196.8C169.125 194.353 168.153 192.007 166.423 190.277C164.693 188.547 162.347 187.575 159.9 187.575V206.025ZM92.25 58.4246H125.691V39.9746H92.25V58.4246ZM89.175 206.025H159.9V187.575H89.175V206.025ZM136.865 105.755L118.873 114.749L127.127 131.25L145.115 122.255L136.865 105.755ZM76.875 182.704V193.725H95.325V182.704H76.875ZM89.175 187.575C90.8061 187.575 92.3704 188.223 93.5237 189.376C94.6771 190.529 95.325 192.094 95.325 193.725H76.875C76.875 196.987 78.1709 200.115 80.4776 202.422C82.7843 204.729 85.9128 206.025 89.175 206.025V187.575ZM118.873 114.749C106.253 121.06 95.6401 130.76 88.2223 142.763C80.8045 154.766 76.8754 168.594 76.875 182.704H95.325C95.3252 172.02 98.3005 161.55 103.917 152.462C109.534 143.373 117.571 136.028 127.127 131.25L118.873 114.749ZM150.675 83.409C150.673 88.0483 149.381 92.5955 146.942 96.542C144.503 100.488 141.014 103.678 136.865 105.755L145.115 122.255C152.331 118.65 158.399 113.105 162.64 106.244C166.881 99.3823 169.126 91.4752 169.125 83.409H150.675ZM125.691 58.4246C132.317 58.4246 138.672 61.0569 143.357 65.7424C148.043 70.4278 150.675 76.7827 150.675 83.409H169.125C169.125 59.4209 149.679 39.9746 125.691 39.9746V58.4246Z" fill="#B3B3B3"/>
</svg>
