<svg width="93" height="167" viewBox="0 0 93 167" fill="none" xmlns="http://www.w3.org/2000/svg">
<path d="M15.375 0C12.9284 0 10.582 0.971916 8.85194 2.70194C7.12192 4.43196 6.15 6.77838 6.15 9.225C6.15 11.6716 7.12192 14.018 8.85194 15.7481C10.582 17.4781 12.9284 18.45 15.375 18.45V0ZM83.025 166.05C85.4716 166.05 87.818 165.078 89.5481 163.348C91.2781 161.618 92.25 159.272 92.25 156.825C92.25 154.378 91.2781 152.032 89.5481 150.302C87.818 148.572 85.4716 147.6 83.025 147.6V166.05ZM15.375 18.45H48.8156V0H15.375V18.45ZM12.3 166.05H83.025V147.6H12.3V166.05ZM59.9902 65.7804L41.9984 74.7748L50.2516 91.2752L68.2404 82.2809L59.9902 65.7804ZM0 142.729V153.75H18.45V142.729H0ZM12.3 147.6C13.9311 147.6 15.4954 148.248 16.6487 149.401C17.8021 150.555 18.45 152.119 18.45 153.75H0C0 157.012 1.29589 160.141 3.60259 162.447C5.90929 164.754 9.03784 166.05 12.3 166.05V147.6ZM41.9984 74.7748C29.3785 81.0857 18.7651 90.7859 11.3473 102.789C3.92953 114.791 0.000353926 128.619 0 142.729H18.45C18.4502 132.045 21.4255 121.575 27.0423 112.487C32.6592 103.399 40.6957 96.0536 50.2516 91.2752L41.9984 74.7748ZM73.8 43.4344C73.7982 48.0737 72.5056 52.6209 70.0666 56.5674C67.6277 60.5139 64.1388 63.7038 59.9902 65.7804L68.2404 82.2809C75.4558 78.675 81.5241 73.1306 85.7649 66.2691C90.0057 59.4077 92.2514 51.5006 92.25 43.4344H73.8ZM48.8156 18.45C55.4419 18.45 61.7968 21.0823 66.4822 25.7678C71.1677 30.4532 73.8 36.8081 73.8 43.4344H92.25C92.25 19.4463 72.8037 0 48.8156 0V18.45Z" fill="#B3B3B3"/>
</svg>
