<svg width="64" height="64" viewBox="0 0 64 64" fill="none" xmlns="http://www.w3.org/2000/svg">
<path d="M29.103 34.8944C28.5933 34.3857 27.986 33.9855 27.3175 33.7178L6.1708 25.2378C5.91831 25.1365 5.70286 24.9604 5.55335 24.7331C5.40385 24.5058 5.32746 24.2382 5.33442 23.9662C5.34139 23.6943 5.43138 23.4309 5.59232 23.2116C5.75327 22.9923 5.97746 22.8274 6.2348 22.7391L56.9015 5.40581C57.1377 5.32046 57.3935 5.30418 57.6387 5.35885C57.8839 5.41353 58.1084 5.53691 58.2861 5.71455C58.4637 5.89219 58.5871 6.11675 58.6418 6.36195C58.6964 6.60716 58.6801 6.86286 58.5948 7.09914L41.2615 57.7658C41.1732 58.0232 41.0084 58.2473 40.789 58.4083C40.5697 58.5692 40.3063 58.6592 40.0344 58.6662C39.7624 58.6732 39.4948 58.5968 39.2675 58.4473C39.0402 58.2977 38.8641 58.0823 38.7628 57.8298L30.2828 36.6778C30.0139 36.0098 29.6126 35.4031 29.103 34.8944ZM29.103 34.8944L58.2775 5.72581" stroke="#38BDF8" stroke-width="5.33333" stroke-linecap="round" stroke-linejoin="round"/>
</svg>
