<svg width="32" height="32" viewBox="0 0 32 32" fill="none" xmlns="http://www.w3.org/2000/svg">
<path d="M13.3332 2.66699H18.6665C19.3737 2.66699 20.052 2.94794 20.5521 3.44804C21.0522 3.94814 21.3332 4.62641 21.3332 5.33366V8.00033H26.6665C27.3737 8.00033 28.052 8.28128 28.5521 8.78137C29.0522 9.28147 29.3332 9.95975 29.3332 10.667V25.3337C29.3332 26.0409 29.0522 26.7192 28.5521 27.2193C28.052 27.7194 27.3737 28.0003 26.6665 28.0003H5.33317C4.62593 28.0003 3.94765 27.7194 3.44755 27.2193C2.94746 26.7192 2.6665 26.0409 2.6665 25.3337V10.667C2.6665 9.18699 3.85317 8.00033 5.33317 8.00033H10.6665V5.33366C10.6665 3.85366 11.8532 2.66699 13.3332 2.66699ZM18.6665 8.00033V5.33366H13.3332V8.00033H18.6665Z" fill="#B3B3B3"/>
</svg>
