<svg width="16" height="16" viewBox="0 0 16 16" fill="none" xmlns="http://www.w3.org/2000/svg">
<path fill-rule="evenodd" clip-rule="evenodd" d="M7.33301 1.07324L13.333 4.53734V9.77646L14.3908 10.4817L14.021 11.0364L11.7988 14.3697L11.3477 15.0463L10.7727 14.4713L8.52354 12.2221L9.46635 11.2793L11.1404 12.9532L12.9116 10.2968L13.2814 9.74209L13.333 9.77646V8.66659L11.9997 8.66655V5.99996L7.99966 8.30934V14.5447L7.33301 14.9296L1.33301 11.4656V4.53734L7.33301 1.07324ZM2.66632 5.99993V10.6957L6.66632 13.0051V8.30934L2.66632 5.99993ZM7.33301 2.61284L3.39966 4.88377L7.33301 7.15468L11.2664 4.88374L7.33301 2.61284Z" fill="white"/>
</svg>
