<svg width="16" height="16" viewBox="0 0 16 16" fill="none" xmlns="http://www.w3.org/2000/svg">
<path d="M3.33398 2H12.0007C12.5311 2 13.0398 2.21071 13.4149 2.58579C13.7899 2.96086 14.0007 3.46957 14.0007 4V12.6667C14.0007 13.1971 13.7899 13.7058 13.4149 14.0809C13.0398 14.456 12.5311 14.6667 12.0007 14.6667H3.33398C2.80355 14.6667 2.29484 14.456 1.91977 14.0809C1.5447 13.7058 1.33398 13.1971 1.33398 12.6667V4C1.33398 3.46957 1.5447 2.96086 1.91977 2.58579C2.29484 2.21071 2.80355 2 3.33398 2ZM3.33398 2.66667C2.98036 2.66667 2.64122 2.80714 2.39118 3.05719C2.14113 3.30724 2.00065 3.64638 2.00065 4V6H5.33398V2.66667H3.33398ZM2.00065 12.6667C2.00065 13.0203 2.14113 13.3594 2.39118 13.6095C2.64122 13.8595 2.98036 14 3.33398 14H5.33398V10.6667H2.00065V12.6667ZM5.33398 6.66667H2.00065V10H5.33398V6.66667ZM12.0007 14C12.3543 14 12.6934 13.8595 12.9435 13.6095C13.1935 13.3594 13.334 13.0203 13.334 12.6667V10.6667H10.0007V14H12.0007ZM13.334 6.66667H10.0007V10H13.334V6.66667ZM13.334 4C13.334 3.64638 13.1935 3.30724 12.9435 3.05719C12.6934 2.80714 12.3543 2.66667 12.0007 2.66667H10.0007V6H13.334V4ZM6.00065 2.66667V6H9.33398V2.66667H6.00065ZM6.00065 14H9.33398V10.6667H6.00065V14ZM9.33398 6.66667H6.00065V10H9.33398V6.66667Z" fill="white"/>
</svg>
