<svg width="15" height="15" viewBox="0 0 15 15" fill="none" xmlns="http://www.w3.org/2000/svg">
<path d="M12.8126 7.96875C12.9783 7.96875 13.1373 7.9029 13.2545 7.78569C13.3717 7.66848 13.4376 7.50951 13.4376 7.34375V4.43125C13.4443 4.00961 13.2836 3.6025 12.9907 3.2991C12.6979 2.99569 12.2967 2.82072 11.8751 2.8125H5.78133C5.61557 2.8125 5.4566 2.87835 5.33939 2.99556C5.22218 3.11277 5.15633 3.27174 5.15633 3.4375C5.15633 3.60326 5.22218 3.76223 5.33939 3.87944C5.4566 3.99665 5.61557 4.0625 5.78133 4.0625H11.8751C11.9652 4.07046 12.0486 4.11364 12.1071 4.18268C12.1656 4.25171 12.1945 4.34103 12.1876 4.43125V7.34375C12.1876 7.50951 12.2534 7.66848 12.3706 7.78569C12.4878 7.9029 12.6468 7.96875 12.8126 7.96875ZM6.71883 11.875C6.76027 11.875 6.80001 11.8915 6.82932 11.9208C6.85862 11.9501 6.87508 11.9898 6.87508 12.0312V12.9687C6.87508 13.0102 6.85862 13.0499 6.82932 13.0792C6.80001 13.1085 6.76027 13.125 6.71883 13.125H5.62508C5.45932 13.125 5.30035 13.1908 5.18314 13.3081C5.06593 13.4253 5.00008 13.5842 5.00008 13.75C5.00008 13.9158 5.06593 14.0747 5.18314 14.1919C5.30035 14.3092 5.45932 14.375 5.62508 14.375H9.21883C9.38459 14.375 9.54356 14.3092 9.66077 14.1919C9.77798 14.0747 9.84383 13.9158 9.84383 13.75C9.84383 13.5842 9.77798 13.4253 9.66077 13.3081C9.54356 13.1908 9.38459 13.125 9.21883 13.125H8.28133C8.23989 13.125 8.20015 13.1085 8.17085 13.0792C8.14154 13.0499 8.12508 13.0102 8.12508 12.9687V12.0312C8.12508 11.9898 8.14154 11.9501 8.17085 11.9208C8.20015 11.8915 8.23989 11.875 8.28133 11.875H9.53133C9.61421 11.875 9.6937 11.8421 9.7523 11.7835C9.81091 11.7249 9.84383 11.6454 9.84383 11.5625V10.7812C9.84383 10.6984 9.81091 10.6189 9.7523 10.5603C9.6937 10.5017 9.61421 10.4687 9.53133 10.4687H3.12508C3.0422 10.4687 2.96272 10.4358 2.90411 10.3772C2.84551 10.3186 2.81258 10.2391 2.81258 10.1562V7.65625C2.81258 7.49049 2.74673 7.33152 2.62952 7.21431C2.51231 7.0971 2.35334 7.03125 2.18758 7.03125C2.02182 7.03125 1.86285 7.0971 1.74564 7.21431C1.62843 7.33152 1.56258 7.49049 1.56258 7.65625V10.2562C1.55589 10.6779 1.71657 11.085 2.00943 11.3884C2.3023 11.6918 2.70347 11.8668 3.12508 11.875H6.71883ZM1.14383 6.09375H3.23133C3.49768 6.08719 3.75072 5.97591 3.93557 5.78404C4.12043 5.59216 4.2222 5.33516 4.21883 5.06875V1.18125C4.2222 0.914838 4.12043 0.657834 3.93557 0.46596C3.75072 0.274086 3.49768 0.162807 3.23133 0.15625H1.14383C0.877479 0.162807 0.624445 0.274086 0.43959 0.46596C0.254736 0.657834 0.152961 0.914838 0.156331 1.18125V5.06875C0.152961 5.33516 0.254736 5.59216 0.43959 5.78404C0.624445 5.97591 0.877479 6.08719 1.14383 6.09375ZM1.09383 1.18125C1.09383 1.125 1.12508 1.09375 1.14383 1.09375H3.23133C3.23133 1.09375 3.28133 1.125 3.28133 1.18125V5.06875C3.28133 5.125 3.28133 5.15625 3.23133 5.15625H1.14383C1.14383 5.15625 1.09383 5.125 1.09383 5.06875V1.18125ZM11.7688 8.90625C11.5025 8.91281 11.2494 9.02409 11.0646 9.21596C10.8797 9.40783 10.778 9.66484 10.7813 9.93125V13.9062C10.7846 14.0327 10.8127 14.1572 10.8641 14.2727C10.9155 14.3883 10.9891 14.4926 11.0808 14.5796C11.1725 14.6667 11.2805 14.7348 11.3985 14.7801C11.5166 14.8255 11.6424 14.8471 11.7688 14.8437H13.8563C13.9827 14.8471 14.1086 14.8255 14.2266 14.7801C14.3447 14.7348 14.4526 14.6667 14.5443 14.5796C14.636 14.4926 14.7097 14.3883 14.7611 14.2727C14.8125 14.1572 14.8406 14.0327 14.8438 13.9062V9.93125C14.8472 9.66484 14.7454 9.40783 14.5606 9.21596C14.3757 9.02409 14.1227 8.91281 13.8563 8.90625H11.7688ZM13.9063 9.93125V13.125C13.9063 13.1664 13.8899 13.2062 13.8606 13.2355C13.8313 13.2648 13.7915 13.2812 13.7501 13.2812H11.8751C11.8336 13.2812 11.7939 13.2648 11.7646 13.2355C11.7353 13.2062 11.7188 13.1664 11.7188 13.125V9.93125C11.7188 9.875 11.7501 9.84375 11.7688 9.84375H13.8563C13.8563 9.84375 13.9063 9.875 13.9063 9.93125Z" fill="white"/>
</svg>
