<svg width="20" height="20" viewBox="0 0 20 20" fill="none" xmlns="http://www.w3.org/2000/svg">
<path d="M17.0831 10.6252C17.3041 10.6252 17.5161 10.5374 17.6724 10.3811C17.8287 10.2248 17.9164 10.0128 17.9164 9.79183V5.9085C17.9254 5.34631 17.7111 4.8035 17.3206 4.39896C16.9302 3.99441 16.3953 3.76112 15.8331 3.75016H7.70812C7.4871 3.75016 7.27514 3.83796 7.11886 3.99424C6.96258 4.15052 6.87478 4.36248 6.87478 4.5835C6.87478 4.80451 6.96258 5.01647 7.11886 5.17275C7.27514 5.32903 7.4871 5.41683 7.70812 5.41683H15.8331C15.9533 5.42744 16.0645 5.48502 16.1425 5.57706C16.2205 5.66911 16.259 5.7882 16.2498 5.9085V9.79183C16.2498 10.0128 16.3376 10.2248 16.4939 10.3811C16.6501 10.5374 16.8621 10.6252 17.0831 10.6252ZM8.95812 15.8335C9.01337 15.8335 9.06636 15.8554 9.10543 15.8945C9.1445 15.9336 9.16645 15.9866 9.16645 16.0418V17.2918C9.16645 17.3471 9.1445 17.4001 9.10543 17.4391C9.06636 17.4782 9.01337 17.5002 8.95812 17.5002H7.49978C7.27877 17.5002 7.06681 17.588 6.91053 17.7442C6.75425 17.9005 6.66645 18.1125 6.66645 18.3335C6.66645 18.5545 6.75425 18.7665 6.91053 18.9228C7.06681 19.079 7.27877 19.1668 7.49978 19.1668H12.2914C12.5125 19.1668 12.7244 19.079 12.8807 18.9228C13.037 18.7665 13.1248 18.5545 13.1248 18.3335C13.1248 18.1125 13.037 17.9005 12.8807 17.7442C12.7244 17.588 12.5125 17.5002 12.2914 17.5002H11.0414C10.9862 17.5002 10.9332 17.4782 10.8941 17.4391C10.8551 17.4001 10.8331 17.3471 10.8331 17.2918V16.0418C10.8331 15.9866 10.8551 15.9336 10.8941 15.8945C10.9332 15.8554 10.9862 15.8335 11.0414 15.8335H12.7081C12.8186 15.8335 12.9246 15.7896 13.0027 15.7115C13.0809 15.6333 13.1248 15.5273 13.1248 15.4168V14.3752C13.1248 14.2647 13.0809 14.1587 13.0027 14.0805C12.9246 14.0024 12.8186 13.9585 12.7081 13.9585H4.16645C4.05594 13.9585 3.94996 13.9146 3.87182 13.8365C3.79368 13.7583 3.74978 13.6523 3.74978 13.5418V10.2085C3.74978 9.98748 3.66198 9.77552 3.5057 9.61924C3.34942 9.46296 3.13746 9.37516 2.91645 9.37516C2.69544 9.37516 2.48347 9.46296 2.32719 9.61924C2.17091 9.77552 2.08312 9.98748 2.08312 10.2085V13.6752C2.07419 14.2373 2.28843 14.7802 2.67892 15.1847C3.0694 15.5892 3.6043 15.8225 4.16645 15.8335H8.95812ZM1.52478 8.12516H4.30812C4.66325 8.11642 5.00063 7.96805 5.2471 7.71222C5.49358 7.45638 5.62928 7.11371 5.62478 6.7585V1.57516C5.62928 1.21995 5.49358 0.877275 5.2471 0.621443C5.00063 0.365611 4.66325 0.217239 4.30812 0.208496H1.52478C1.16965 0.217239 0.832267 0.365611 0.585795 0.621443C0.339323 0.877275 0.203623 1.21995 0.208116 1.57516V6.7585C0.203623 7.11371 0.339323 7.45638 0.585795 7.71222C0.832267 7.96805 1.16965 8.11642 1.52478 8.12516ZM1.45812 1.57516C1.45812 1.50016 1.49978 1.4585 1.52478 1.4585H4.30812C4.30812 1.4585 4.37478 1.50016 4.37478 1.57516V6.7585C4.37478 6.8335 4.37478 6.87516 4.30812 6.87516H1.52478C1.52478 6.87516 1.45812 6.8335 1.45812 6.7585V1.57516ZM15.6914 11.8752C15.3363 11.8839 14.9989 12.0323 14.7525 12.2881C14.506 12.5439 14.3703 12.8866 14.3748 13.2418V18.5418C14.3791 18.7104 14.4166 18.8764 14.4851 19.0305C14.5536 19.1845 14.6518 19.3236 14.7741 19.4396C14.8964 19.5557 15.0403 19.6466 15.1977 19.707C15.3551 19.7674 15.5229 19.7963 15.6914 19.7918H18.4748C18.6433 19.7963 18.8111 19.7674 18.9685 19.707C19.1259 19.6466 19.2698 19.5557 19.3921 19.4396C19.5144 19.3236 19.6126 19.1845 19.6811 19.0305C19.7496 18.8764 19.7871 18.7104 19.7914 18.5418V13.2418C19.7959 12.8866 19.6602 12.5439 19.4138 12.2881C19.1673 12.0323 18.8299 11.8839 18.4748 11.8752H15.6914ZM18.5414 13.2418V17.5002C18.5414 17.5554 18.5195 17.6084 18.4804 17.6475C18.4414 17.6865 18.3884 17.7085 18.3331 17.7085H15.8331C15.7779 17.7085 15.7249 17.6865 15.6858 17.6475C15.6467 17.6084 15.6248 17.5554 15.6248 17.5002V13.2418C15.6248 13.1668 15.6664 13.1252 15.6914 13.1252H18.4748C18.4748 13.1252 18.5414 13.1668 18.5414 13.2418Z" fill="white"/>
</svg>
