<svg width="16" height="16" viewBox="0 0 16 16" fill="none" xmlns="http://www.w3.org/2000/svg">
<path d="M12.6667 7.33287H4.75999L7.17999 4.4262C7.29315 4.29005 7.34759 4.11453 7.33134 3.93825C7.31508 3.76197 7.22947 3.59936 7.09332 3.4862C6.95718 3.37304 6.78166 3.3186 6.60537 3.33485C6.42909 3.35111 6.26648 3.43672 6.15332 3.57287L2.81999 7.57287C2.79711 7.60438 2.77703 7.63784 2.75999 7.67287C2.75999 7.7062 2.75999 7.7262 2.71332 7.75953C2.68311 7.83597 2.66728 7.91734 2.66666 7.99953C2.66728 8.08173 2.68311 8.16309 2.71332 8.23953C2.71332 8.27287 2.71332 8.29287 2.75999 8.3262C2.77703 8.36122 2.79711 8.39468 2.81999 8.4262L6.15332 12.4262C6.216 12.5015 6.2945 12.562 6.38322 12.6035C6.47194 12.6449 6.56872 12.6664 6.66666 12.6662C6.82242 12.6665 6.97338 12.6123 7.09332 12.5129C7.16083 12.4569 7.21663 12.3882 7.25753 12.3106C7.29843 12.233 7.32363 12.1482 7.33168 12.0608C7.33973 11.9735 7.33048 11.8855 7.30445 11.8017C7.27842 11.718 7.23612 11.6402 7.17999 11.5729L4.75999 8.6662H12.6667C12.8435 8.6662 13.013 8.59596 13.1381 8.47094C13.2631 8.34591 13.3333 8.17634 13.3333 7.99953C13.3333 7.82272 13.2631 7.65315 13.1381 7.52813C13.013 7.4031 12.8435 7.33287 12.6667 7.33287Z" fill="#1E1E1E"/>
</svg>
