<svg width="64" height="64" viewBox="0 0 64 64" fill="none" xmlns="http://www.w3.org/2000/svg">
<path d="M3.99023 3.98828H51.0302C53.4066 3.98828 55.6856 4.93228 57.3659 6.6126C59.0462 8.29293 59.9902 10.5719 59.9902 12.9483V51.0283C59.9902 53.4046 59.0462 55.6836 57.3659 57.364C55.6856 59.0443 53.4066 59.9883 51.0302 59.9883H12.9502C10.5739 59.9883 8.29488 59.0443 6.61456 57.364C4.93423 55.6836 3.99023 53.4046 3.99023 51.0283V3.98828Z" fill="#663399"/>
<path d="M18.1582 49.7398V40.3318C18.1582 36.5798 20.5662 34.5638 24.2062 34.5638C27.7902 34.5078 30.0302 36.8598 29.9182 40.8358H25.7742C25.8862 39.3238 25.2142 38.2038 24.0942 38.2598C22.6942 38.2598 22.3022 39.2118 22.3022 41.0038V49.1798C22.3022 50.9158 22.8622 51.7558 24.0942 51.8118C25.3822 51.8118 25.8862 50.5238 25.7742 49.0678H29.9182C30.1422 53.1558 27.5662 55.5638 23.9262 55.5078C20.3982 55.5078 18.1582 53.5478 18.1582 49.7398ZM31.4302 49.0678H35.2942C35.3502 50.8598 35.9102 51.9798 37.1422 51.9798C38.3742 51.9798 38.8222 51.2518 38.8222 49.5718C38.8222 48.1718 38.2062 47.3878 36.6942 46.6598L35.2382 45.9878C32.6622 44.7558 31.5982 43.2438 31.5982 40.2198C31.5982 36.8598 33.7262 34.5078 37.1982 34.5078C40.6702 34.5078 42.5182 36.9158 42.5742 40.8358H38.8222C38.8222 39.2118 38.4862 38.0918 37.2542 38.0918C36.1342 38.0918 35.5742 38.6518 35.5742 40.0518C35.5742 41.4518 36.0782 42.0118 37.4222 42.5718L38.7662 43.1878C41.6222 44.5318 42.8542 46.2678 42.8542 49.5158C42.8542 53.3798 40.6702 55.5078 37.0862 55.5078C33.5022 55.5078 31.4862 53.0438 31.4302 49.0678ZM44.0862 49.0678H48.0062C48.0062 50.8598 48.6222 51.9798 49.7982 51.9798C50.9742 51.9798 51.4782 51.2518 51.4782 49.5718C51.4782 48.1718 50.9182 47.3878 49.3502 46.6598L47.8942 45.9878C45.3182 44.7558 44.3102 43.2438 44.3102 40.2198C44.3102 36.8598 46.3822 34.5078 49.9102 34.5078C53.4382 34.5078 55.1742 36.9158 55.2862 40.8358H51.5342C51.4782 39.2118 51.1422 38.0918 49.9102 38.0918C48.7902 38.0918 48.2862 38.6518 48.2862 40.0518C48.2862 41.4518 48.7342 42.0118 50.0782 42.5718L51.4782 43.1878C54.2782 44.5318 55.5102 46.2678 55.5102 49.5158C55.5102 53.3798 53.3262 55.5078 49.7422 55.5078C46.1582 55.5078 44.1422 53.0438 44.0862 49.0678Z" fill="white"/>
</svg>
