<svg width="64" height="64" viewBox="0 0 64 64" fill="none" xmlns="http://www.w3.org/2000/svg">
<path d="M11.8036 54.402L7.30957 4H56.6896L52.1896 54.394L31.9696 60L11.8036 54.402Z" fill="#E44F26"/>
<path d="M32 55.7161L48.34 51.1861L52.184 8.12207H32V55.7161Z" fill="#F1662A"/>
<path d="M32 26.8138H23.82L23.256 20.4838H32V14.3018H16.5L16.648 15.9618L18.166 32.9958H32V26.8138ZM32 42.8678L31.972 42.8758L25.088 41.0178L24.648 36.0878H18.442L19.308 45.7918L31.972 49.3078L32 49.2998V42.8678Z" fill="#EBEBEB"/>
<path d="M31.9775 26.8138V32.9958H39.5895L38.8735 41.0138L31.9775 42.8738V49.3058L44.6515 45.7918L44.7435 44.7478L46.1955 28.4738L46.3475 26.8138H31.9775ZM31.9775 14.3018V20.4838H46.9095L47.0335 19.0958L47.3155 15.9618L47.4635 14.3018H31.9775Z" fill="white"/>
</svg>
