<svg width="64" height="64" viewBox="0 0 64 64" fill="none" xmlns="http://www.w3.org/2000/svg">
<path d="M0 0H64V64H0V0Z" fill="#F7DF1E"/>
<path d="M16.8284 53.4828L21.7259 50.5188C22.6709 52.1941 23.5304 53.6116 25.5921 53.6116C27.5684 53.6116 28.8146 52.8386 28.8146 49.8316V29.3821H34.8289V49.9166C34.8289 56.1458 31.1774 58.9813 25.8499 58.9813C21.0386 58.9813 18.2459 56.4896 16.8281 53.4823M38.0956 52.8383L42.9926 50.0031C44.2819 52.1083 45.9574 53.6548 48.9214 53.6548C51.4136 53.6548 53.0026 52.4088 53.0026 50.6903C53.0026 48.6283 51.3701 47.8978 48.6206 46.6953L47.1174 46.0503C42.7781 44.2036 39.8999 41.8836 39.8999 36.9861C39.8999 32.4751 43.3366 29.0381 48.7069 29.0381C52.5304 29.0381 55.2799 30.3701 57.2559 33.8498L52.5729 36.8573C51.5416 35.0101 50.4251 34.2798 48.7066 34.2798C46.9451 34.2798 45.8281 35.3968 45.8281 36.8573C45.8281 38.6616 46.9451 39.3923 49.5226 40.5093L51.0261 41.1536C56.1386 43.3448 59.0169 45.5786 59.0169 50.6046C59.0169 56.0181 54.7639 58.9821 49.0501 58.9821C43.4654 58.9821 39.8566 56.3186 38.0954 52.8386" fill="black"/>
</svg>
