<svg width="14" height="14" viewBox="0 0 14 14" fill="none" xmlns="http://www.w3.org/2000/svg">
<path d="M6.66667 13.3333C10.3487 13.3333 13.3333 10.3487 13.3333 6.66667C13.3333 6.358 12.8707 6.30667 12.7113 6.57133C12.3715 7.13423 11.908 7.6124 11.356 7.96965C10.804 8.32689 10.1779 8.55382 9.52522 8.63327C8.87251 8.71271 8.21029 8.64258 7.5887 8.42819C6.96711 8.21379 6.40246 7.86075 5.93752 7.39581C5.47258 6.93087 5.11954 6.36622 4.90515 5.74463C4.69075 5.12305 4.62062 4.46082 4.70006 3.80811C4.77951 3.1554 5.00645 2.52934 5.36369 1.97732C5.72093 1.42531 6.19911 0.961837 6.762 0.622C7.02667 0.462 6.97533 0 6.66667 0C2.98467 0 0 2.98467 0 6.66667C0 10.3487 2.98467 13.3333 6.66667 13.3333Z" fill="white"/>
</svg>
