<svg width="16" height="16" viewBox="0 0 16 16" fill="none" xmlns="http://www.w3.org/2000/svg">
<path d="M1.14258 4.42885C1.14258 4.01208 1.30814 3.61238 1.60284 3.31768C1.89754 3.02298 2.29724 2.85742 2.71401 2.85742H13.2854C13.7022 2.85742 14.1019 3.02298 14.3966 3.31768C14.6913 3.61238 14.8569 4.01208 14.8569 4.42885V11.0003C14.8569 11.417 14.6913 11.8167 14.3966 12.1114C14.1019 12.4061 13.7022 12.5717 13.2854 12.5717H13.2437C13.2952 12.399 13.2989 12.2155 13.2547 12.0408C13.2104 11.8661 13.1198 11.7066 12.9923 11.5791L7.84944 6.43628C7.70959 6.29653 7.53145 6.20137 7.33753 6.16282C7.14362 6.12428 6.94263 6.14408 6.75996 6.21973C6.5773 6.29537 6.42116 6.42347 6.31127 6.58783C6.20138 6.75218 6.14268 6.94543 6.14258 7.14314V12.5717H2.71401C2.29724 12.5717 1.89754 12.4061 1.60284 12.1114C1.30814 11.8167 1.14258 11.417 1.14258 11.0003V4.42885ZM7.44544 6.84028C7.3855 6.78042 7.30917 6.73966 7.22608 6.72316C7.143 6.70665 7.05689 6.71514 6.97862 6.74754C6.90036 6.77995 6.83345 6.83482 6.78635 6.90523C6.73926 6.97564 6.71408 7.05843 6.71401 7.14314V14.4289C6.71405 14.5169 6.7412 14.6028 6.79178 14.6749C6.84236 14.7469 6.91391 14.8017 6.9967 14.8316C7.07949 14.8616 7.1695 14.8654 7.25449 14.8424C7.33948 14.8194 7.41533 14.7708 7.47172 14.7031L9.41058 12.3769C9.42612 12.3581 9.4462 12.3437 9.4689 12.3349C9.4916 12.3261 9.51618 12.3232 9.54029 12.3266L12.2249 12.71C12.3138 12.7225 12.4044 12.7068 12.4839 12.6651C12.5635 12.6233 12.6278 12.5576 12.668 12.4773C12.7082 12.3969 12.7221 12.306 12.7078 12.2174C12.6935 12.1287 12.6517 12.0468 12.5883 11.9831L7.44544 6.84028Z" fill="white"/>
</svg>
