<svg width="16" height="16" viewBox="0 0 16 16" fill="none" xmlns="http://www.w3.org/2000/svg">
<path d="M1.33345 7.30634C1.25605 7.26379 1.18803 7.20606 1.13347 7.1366C1.0789 7.06715 1.03891 6.9874 1.01588 6.90213C0.992848 6.81686 0.987258 6.72782 0.999441 6.64034C1.01162 6.55286 1.04133 6.46874 1.08678 6.39301L2.08678 4.66634C2.16011 4.53301 2.27345 4.43967 2.40011 4.38634L7.62011 1.45301C7.72678 1.37301 7.86011 1.33301 8.00011 1.33301C8.14011 1.33301 8.27345 1.37301 8.38011 1.45301L13.6468 4.41301C13.7734 4.47967 13.8801 4.58634 13.9401 4.71967L14.9068 6.39967C15.0934 6.71967 14.9801 7.12634 14.6668 7.30634L14.0001 7.69301V10.9997C14.0001 11.253 13.8601 11.473 13.6468 11.5863L8.38011 14.5463C8.27345 14.6263 8.14011 14.6663 8.00011 14.6663C7.86011 14.6663 7.72678 14.6263 7.62011 14.5463L2.35345 11.5863C2.24652 11.5302 2.15703 11.4459 2.09473 11.3424C2.03243 11.239 1.9997 11.1204 2.00011 10.9997V7.30634C1.80011 7.41967 1.54678 7.42634 1.33345 7.30634ZM8.00011 2.76634V7.23301L11.9734 4.99967L8.00011 2.76634ZM3.33345 10.6063L7.33345 12.8597V8.38634L3.33345 6.13967V10.6063ZM12.6668 10.6063V8.45967L9.33345 10.393C9.11345 10.513 8.86678 10.5063 8.66678 10.3997V12.8597L12.6668 10.6063ZM9.23345 8.90634L13.4201 6.48634L13.0334 5.81301L8.84678 8.23301L9.23345 8.90634Z" fill="white"/>
</svg>
