<svg width="14" height="21" viewBox="0 0 14 21" fill="none" xmlns="http://www.w3.org/2000/svg">
<path d="M3.50022 21C5.43206 21 6.99994 19.432 6.99994 17.5V14H3.50022C1.56837 14 0.000488281 15.568 0.000488281 17.5C0.000488281 19.432 1.56837 21 3.50022 21Z" fill="#0ACF83"/>
<path d="M0.000488281 10.5C0.000488281 8.568 1.56837 7 3.50022 7H6.99994V14H3.50022C1.56837 14 0.000488281 12.432 0.000488281 10.5Z" fill="#A259FF"/>
<path d="M0.000488281 3.5C0.000488281 1.568 1.56837 0 3.50022 0H6.99994V7H3.50022C1.56837 7 0.000488281 5.432 0.000488281 3.5Z" fill="#F24E1E"/>
<path d="M7 0H10.4997C12.4316 0 13.9995 1.568 13.9995 3.5C13.9995 5.432 12.4316 7 10.4997 7H7V0Z" fill="#FF7262"/>
<path d="M13.9995 10.5C13.9995 12.432 12.4316 14 10.4997 14C8.56788 14 7 12.432 7 10.5C7 8.568 8.56788 7 10.4997 7C12.4316 7 13.9995 8.568 13.9995 10.5Z" fill="#1ABCFE"/>
</svg>
