<svg width="64" height="64" viewBox="0 0 64 64" fill="none" xmlns="http://www.w3.org/2000/svg">
<path d="M26.3442 5.65577L23.5602 8.43977L27.3802 12.2598L31.3802 16.2598C32.2912 15.8091 33.3022 15.5984 34.3175 15.6476C35.3327 15.6968 36.3185 16.0044 37.1817 16.5411C38.0449 17.0778 38.7567 17.826 39.25 18.7147C39.7432 19.6034 40.0014 20.6033 40.0002 21.6198C39.9786 22.5268 39.7674 23.4193 39.3802 24.2398L43.5002 28.2398C44.5807 27.6155 45.8451 27.3878 47.0755 27.5959C48.3059 27.804 49.4251 28.4349 50.2402 29.3798C50.8097 29.9259 51.2601 30.584 51.563 31.3127C51.8659 32.0414 52.0147 32.8248 52.0002 33.6138C52.0015 35.1892 51.3871 36.7029 50.2882 37.8318C49.7353 38.4092 49.0689 38.8662 48.331 39.1739C47.5931 39.4816 46.7996 39.6334 46.0002 39.6198C45.2094 39.6322 44.4244 39.4844 43.6922 39.1854C42.9601 38.8864 42.2961 38.4422 41.7402 37.8798C40.7983 37.0579 40.1715 35.934 39.9672 34.7007C39.7628 33.4675 39.9937 32.2015 40.6202 31.1198L36.6202 26.9998C36.4181 27.0912 36.2111 27.1713 36.0002 27.2398V39.9998C37.1613 40.4134 38.1669 41.1745 38.8802 42.1798C39.6082 43.179 40.0004 44.3835 40.0002 45.6198C40.0159 46.4118 39.8681 47.1985 39.5659 47.9308C39.2638 48.6631 38.8138 49.3252 38.2442 49.8758C37.155 50.9636 35.6872 51.5878 34.1482 51.6178C33.036 51.6525 31.9364 51.3754 30.9736 50.8176C30.0108 50.2599 29.2232 49.4439 28.7001 48.4619C28.1769 47.4799 27.939 46.371 28.0132 45.2608C28.0875 44.1507 28.4709 43.0834 29.1202 42.1798C29.8335 41.1745 30.8391 40.4134 32.0002 39.9998V27.2398C30.8365 26.8309 29.8296 26.0687 29.1202 25.0598C28.3896 24.0618 27.9972 22.8565 28.0002 21.6198C27.9985 20.7099 28.2109 19.8124 28.6202 18.9998L20.8202 11.1998L5.66219 26.3438C4.91884 27.0865 4.32912 27.9685 3.92671 28.9392C3.5243 29.91 3.31708 30.9505 3.31689 32.0014C3.31671 33.0522 3.52356 34.0928 3.92563 35.0637C4.3277 36.0346 4.91711 36.9167 5.66019 37.6598L26.3442 58.3438C27.8444 59.8435 29.8789 60.6861 32.0002 60.6861C34.1215 60.6861 36.156 59.8435 37.6562 58.3438L58.3442 37.6558C59.844 36.1555 60.6865 34.1211 60.6865 31.9998C60.6865 29.8785 59.844 27.844 58.3442 26.3438L37.6562 5.65577C36.156 4.156 34.1215 3.31348 32.0002 3.31348C29.8789 3.31348 27.8444 4.156 26.3442 5.65577Z" fill="#E64A19"/>
</svg>
