<svg width="64" height="64" viewBox="0 0 64 64" fill="none" xmlns="http://www.w3.org/2000/svg">
<path d="M63.7383 36.0633C65.978 18.5305 53.596 2.50125 36.0952 0.26175C18.5945 -1.978 2.50125 10.404 0.26175 27.9048C-1.978 45.4055 10.404 61.4668 27.9048 63.7383C45.4375 65.978 61.4668 53.596 63.7383 36.0633Z" fill="#FF6C37"/>
<path d="M43.5505 20.5461L30.0487 34.0478L26.2412 30.2403C39.519 16.9628 40.831 18.1146 43.5505 20.5461Z" fill="white"/>
<path d="M30.0478 34.3676C29.9518 34.3676 29.8878 34.3356 29.8238 34.2716L25.9846 30.4644C25.9543 30.4355 25.9301 30.4007 25.9137 30.3623C25.8972 30.3238 25.8887 30.2824 25.8887 30.2405C25.8887 30.1986 25.8972 30.1572 25.9137 30.1187C25.9301 30.0802 25.9543 30.0455 25.9846 30.0166C39.4861 16.5149 40.8938 17.7946 43.7413 20.3541C43.8053 20.4181 43.8373 20.4821 43.8373 20.5781C43.8373 20.6741 43.8053 20.7381 43.7413 20.8021L30.2398 34.2716C30.2078 34.3356 30.1118 34.3676 30.0478 34.3676ZM26.6886 30.2404L30.0478 33.5999L43.0696 20.5781C40.7021 18.4666 39.1021 17.8264 26.6886 30.2404Z" fill="#FF6C37"/>
<path d="M33.9195 37.9193L30.2402 34.2398L43.7417 20.7383C47.3572 24.3858 41.9502 30.3045 33.9195 37.9193Z" fill="white"/>
<path d="M33.9194 38.239C33.8234 38.239 33.7594 38.207 33.6957 38.143L30.0161 34.4635C29.9521 34.3995 29.9521 34.3355 29.9521 34.2395C29.9521 34.1438 29.9841 34.0795 30.0481 34.0158L43.5499 20.514C43.5788 20.4837 43.6135 20.4595 43.652 20.443C43.6905 20.4265 43.732 20.418 43.7739 20.418C43.8158 20.418 43.8573 20.4265 43.8958 20.443C43.9343 20.4595 43.969 20.4837 43.9979 20.514C44.4064 20.892 44.7291 21.3532 44.9444 21.8665C45.1596 22.3797 45.2623 22.9332 45.2456 23.4895C45.1816 27.041 41.1507 31.552 34.1756 38.143C34.0796 38.207 33.9836 38.239 33.9196 38.239M30.6884 34.2395C32.7359 36.3193 33.5999 37.151 33.9196 37.471C39.2946 32.352 44.5096 27.105 44.5419 23.4895C44.5739 22.6578 44.2539 21.8258 43.7099 21.186L30.6884 34.2395Z" fill="#FF6C37"/>
<path d="M26.3047 30.3366L29.0242 33.0561C29.0882 33.1201 29.0882 33.1841 29.0242 33.2481C28.9922 33.2801 28.9922 33.2801 28.9602 33.2801L23.3292 34.4959C23.0412 34.5279 22.7852 34.3359 22.7212 34.0481C22.6892 33.8881 22.7532 33.7281 22.8492 33.6321L26.1127 30.3686C26.1767 30.3046 26.2727 30.2726 26.3047 30.3366Z" fill="white"/>
<path d="M23.2331 34.8152C22.7531 34.8152 22.4014 34.4312 22.4014 33.9515C22.4014 33.7275 22.4974 33.5035 22.6574 33.3435L25.9206 30.08C26.1126 29.92 26.3686 29.92 26.5606 30.08L29.2801 32.7995C29.4721 32.9595 29.4721 33.2475 29.2801 33.4395C29.2161 33.5035 29.1521 33.5355 29.0561 33.5675L23.4251 34.7832C23.3611 34.7832 23.2971 34.8152 23.2331 34.8152ZM26.2086 30.688L23.0731 33.8235C23.0091 33.8875 22.9771 33.9835 23.0411 34.0795C23.0731 34.1755 23.1691 34.2072 23.2651 34.1755L28.5441 33.0235L26.2086 30.688Z" fill="#FF6C37"/>
<path d="M50.6846 13.0592C48.6371 11.0755 45.3416 11.1395 43.3581 13.2192C41.3743 15.2987 41.4383 18.5622 43.5181 20.5457C44.3389 21.3388 45.3992 21.8379 46.5334 21.9653C47.6677 22.0926 48.8123 21.841 49.7886 21.2497L46.1411 17.6022L50.6846 13.0592Z" fill="white"/>
<path d="M47.1016 22.3058C44.0621 22.3058 41.5986 19.8423 41.5986 16.8028C41.5986 13.7633 44.0621 11.2998 47.1016 11.2998C48.5091 11.2998 49.8851 11.8438 50.9091 12.8356C50.9729 12.8996 51.0049 12.9636 51.0049 13.0596C51.0049 13.1556 50.9729 13.2196 50.9089 13.2836L46.5896 17.6026L49.9811 20.9941C50.1091 21.1221 50.1091 21.3141 49.9811 21.4421L49.9171 21.5061C49.0851 22.0178 48.0934 22.3058 47.1016 22.3058ZM47.1016 11.9721C44.4141 11.9721 42.2384 14.1476 42.2704 16.8351C42.2704 19.5226 44.4461 21.6983 47.1336 21.6663C47.8694 21.6663 48.6054 21.5063 49.2771 21.1543L45.9179 17.8268C45.8539 17.7628 45.8219 17.6988 45.8219 17.6028C45.8219 17.5071 45.8539 17.4428 45.9179 17.3791L50.2051 13.0916C49.3411 12.3558 48.2534 11.9721 47.1016 11.9721Z" fill="#FF6C37"/>
<path d="M50.7806 13.1558L50.7166 13.0918L46.1416 17.6028L49.7569 21.2183C50.1089 20.9943 50.4606 20.7383 50.7486 20.4503C51.2333 19.9755 51.619 19.4093 51.8833 18.7843C52.1475 18.1594 52.2851 17.4882 52.2881 16.8097C52.2911 16.1312 52.1594 15.4589 51.9006 14.8317C51.6418 14.2044 51.2611 13.6348 50.7806 13.1558Z" fill="white"/>
<path d="M49.7885 21.5698C49.6925 21.5698 49.6285 21.5378 49.5645 21.4738L45.917 17.8263C45.8533 17.7623 45.8213 17.6983 45.8213 17.6023C45.8213 17.5065 45.8533 17.4423 45.9173 17.3785L50.4603 12.8353C50.4892 12.8049 50.5239 12.7808 50.5624 12.7643C50.6009 12.7478 50.6424 12.7393 50.6843 12.7393C50.7262 12.7393 50.7676 12.7478 50.8061 12.7643C50.8447 12.7808 50.8794 12.8049 50.9083 12.8353L51.0043 12.8993C53.148 15.0428 53.148 18.4983 51.0363 20.6738C50.7163 20.9938 50.3645 21.2818 49.9805 21.5058C49.8845 21.5378 49.8205 21.5698 49.7885 21.5698ZM46.589 17.6023L49.8205 20.8338C50.0765 20.6738 50.3325 20.4498 50.5243 20.258C52.348 18.4343 52.444 15.4588 50.6843 13.539L46.589 17.6023Z" fill="#FF6C37"/>
<path d="M44.0933 21.1216C43.724 20.753 43.2234 20.5459 42.7015 20.5459C42.1797 20.5459 41.6791 20.753 41.3098 21.1216L29.248 33.1834L31.2635 35.1992L44.0293 24.0011C44.8613 23.2971 44.925 22.0494 44.2213 21.2176C44.1573 21.1856 44.1253 21.1536 44.0933 21.1216Z" fill="white"/>
<path d="M31.232 35.5199C31.136 35.5199 31.072 35.4879 31.008 35.4239L28.9925 33.4082C28.9622 33.3793 28.938 33.3446 28.9215 33.306C28.905 33.2675 28.8965 33.2261 28.8965 33.1842C28.8965 33.1423 28.905 33.1008 28.9215 33.0623C28.938 33.0238 28.9622 32.9891 28.9925 32.9602L41.0543 20.8984C41.266 20.6855 41.5178 20.5165 41.7951 20.4012C42.0724 20.2859 42.3697 20.2266 42.67 20.2266C42.9703 20.2266 43.2677 20.2859 43.545 20.4012C43.8222 20.5165 44.074 20.6855 44.2858 20.8984C44.4987 21.1102 44.6677 21.362 44.783 21.6392C44.8983 21.9165 44.9576 22.2139 44.9576 22.5142C44.9576 22.8145 44.8983 23.1118 44.783 23.3891C44.6677 23.6664 44.4987 23.9182 44.2858 24.1299L44.1898 24.2259L31.424 35.4239C31.392 35.4879 31.328 35.5199 31.232 35.5199ZM29.6963 33.1842L31.264 34.7519L43.8058 23.7459C44.5098 23.1699 44.5738 22.1142 43.9978 21.4104C43.422 20.7064 42.366 20.6424 41.6623 21.2184C41.6303 21.2504 41.5983 21.2824 41.5343 21.3144L29.6963 33.1842Z" fill="#FF6C37"/>
<path d="M20.0023 46.9097C19.8746 46.9737 19.8106 47.1017 19.8423 47.2297L20.3863 49.5332C20.5143 49.8532 20.3223 50.2372 19.9703 50.3332C19.7146 50.4292 19.4266 50.3332 19.2666 50.1412L15.7471 46.6537L27.2331 35.168L31.2006 35.232L33.8881 37.9195C33.2481 38.4632 29.3768 42.2067 20.0023 46.9097Z" fill="white"/>
<path d="M19.7465 50.6527C19.4905 50.6527 19.2345 50.5569 19.0745 50.3649L15.587 46.8774C15.5232 46.8134 15.4912 46.7494 15.4912 46.6537C15.4912 46.5577 15.5232 46.4937 15.5872 46.4297L27.073 34.9437C27.137 34.8797 27.233 34.8477 27.297 34.8477L31.2645 34.9117C31.3602 34.9117 31.4245 34.9437 31.4882 35.0077L34.1757 37.6952C34.2397 37.7592 34.2717 37.8552 34.2717 37.9512C34.2717 38.0472 34.2397 38.1112 34.1437 38.1752L33.9197 38.3669C30.5285 41.3424 25.9212 44.3179 20.1942 47.1654L20.7382 49.4372C20.8342 49.8529 20.6422 50.3009 20.2582 50.5247C20.0662 50.6209 19.9062 50.6527 19.7465 50.6527ZM16.227 46.6539L19.5225 49.9172C19.6185 50.0772 19.8105 50.1412 19.9702 50.0452C20.1302 49.9492 20.1942 49.7572 20.0982 49.5972L19.5545 47.2937C19.4905 47.0057 19.6185 46.7497 19.8745 46.6219C25.5372 43.7744 30.1125 40.8309 33.472 37.9194L31.1045 35.5519L27.425 35.4879L16.227 46.6539Z" fill="#FF6C37"/>
<path d="M13.027 49.4048L15.7783 46.6533L19.8738 50.7483L13.3468 50.3006C13.0588 50.2686 12.8668 50.0126 12.899 49.7246C12.899 49.5966 12.931 49.4686 13.0268 49.4046" fill="white"/>
<path d="M19.8739 51.0363L13.3149 50.5885C12.8349 50.5565 12.5149 50.1405 12.5472 49.6605C12.5792 49.4685 12.6432 49.2768 12.8032 49.1488L15.5547 46.3973C15.5835 46.367 15.6183 46.3429 15.6568 46.3264C15.6952 46.3099 15.7367 46.3014 15.7785 46.3014C15.8204 46.3014 15.8618 46.3099 15.9003 46.3264C15.9388 46.3429 15.9735 46.367 16.0024 46.3973L20.0977 50.4923C20.1937 50.5885 20.2257 50.7165 20.1617 50.8443C20.0977 50.9723 20.0017 51.0363 19.8739 51.0363ZM15.7784 47.1013L13.2509 49.6288C13.1549 49.6925 13.1549 49.8525 13.2509 49.9165C13.2829 49.9485 13.3149 49.9805 13.3789 49.9805L19.0419 50.3645L15.7784 47.1013ZM26.1127 36.639C25.9207 36.639 25.7927 36.479 25.7927 36.319C25.7927 36.223 25.8247 36.159 25.8887 36.095L28.9922 32.9915C29.021 32.9612 29.0558 32.937 29.0943 32.9205C29.1328 32.904 29.1743 32.8955 29.2162 32.8955C29.258 32.8955 29.2995 32.904 29.338 32.9205C29.3765 32.937 29.4113 32.9612 29.4402 32.9915L31.4557 35.0073C31.5517 35.1033 31.5837 35.1993 31.5517 35.3273C31.5197 35.4233 31.4237 35.5193 31.2957 35.5513L26.1767 36.6388L26.1127 36.639ZM29.2162 33.6635L27.1044 35.775L30.5599 35.0393L29.2162 33.6635Z" fill="#FF6C37"/>
<path d="M31.1996 35.2318L27.6803 35.9995C27.4243 36.0635 27.1683 35.9035 27.1043 35.6475C27.0723 35.4875 27.1043 35.3275 27.2323 35.1998L29.1841 33.248L31.1996 35.2318Z" fill="white"/>
<path d="M27.6164 36.3194C27.5111 36.3204 27.4066 36.3004 27.3091 36.2605C27.2116 36.2207 27.123 36.1618 27.0485 36.0873C26.974 36.0128 26.9151 35.9242 26.8753 35.8267C26.8355 35.7292 26.8154 35.6247 26.8164 35.5194C26.8164 35.2956 26.9124 35.1036 27.0404 34.9436L28.9922 32.9919C29.0211 32.9615 29.0558 32.9374 29.0943 32.9209C29.1328 32.9044 29.1743 32.8959 29.2162 32.8959C29.2581 32.8959 29.2995 32.9044 29.3381 32.9209C29.3766 32.9374 29.4113 32.9615 29.4402 32.9919L31.4557 35.0076C31.5517 35.1036 31.5837 35.1996 31.5517 35.3276C31.5197 35.4236 31.4237 35.5196 31.2957 35.5516L27.7764 36.3194H27.6164ZM29.2162 33.6639L27.4884 35.3914C27.4244 35.4556 27.4244 35.5196 27.4564 35.5834C27.4884 35.6474 27.5524 35.6794 27.6484 35.6794L30.5919 35.0394L29.2162 33.6639ZM50.8122 16.2269C50.7482 16.0351 50.5242 15.9391 50.3322 16.0031C50.1404 16.0671 50.0444 16.2909 50.1084 16.4831C50.1084 16.5149 50.1404 16.5469 50.1404 16.5789C50.3324 16.9629 50.2684 17.4429 50.0124 17.7946C49.8844 17.9546 49.9164 18.1786 50.0444 18.3066C50.2044 18.4346 50.4282 18.4026 50.5562 18.2426C51.0362 17.6346 51.1322 16.8669 50.8122 16.2269Z" fill="#FF6C37"/>
</svg>
