<svg width="31" height="31" viewBox="0 0 31 31" fill="none" xmlns="http://www.w3.org/2000/svg">
<path fill-rule="evenodd" clip-rule="evenodd" d="M22.6328 3.29402C21.8614 3.29363 21.1005 3.47415 20.4113 3.82109C19.7221 4.16804 19.1238 4.67178 18.6642 5.2919C18.2046 5.91203 17.8965 6.63131 17.7648 7.39206C17.633 8.15281 17.6812 8.93388 17.9054 9.67264L18.1907 10.6171L17.495 11.3156L3.76923 25.0503C3.49565 25.3241 3.34196 25.6954 3.34196 26.0826C3.34196 26.4698 3.49565 26.8412 3.76923 27.115C4.04281 27.3888 4.41385 27.5426 4.80075 27.5426C5.18764 27.5426 5.55869 27.3888 5.83227 27.115L19.5558 13.3759L20.2538 12.6774L21.1975 12.963C22.1144 13.2425 23.0928 13.2489 24.0133 12.9814C24.9338 12.714 25.7566 12.1842 26.3813 11.4567C27.0061 10.7291 27.4058 9.8354 27.5317 8.88443C27.6576 7.93345 27.5042 6.96637 27.0903 6.10114L23.7982 9.39808C23.6465 9.55549 23.4649 9.68108 23.2641 9.76751C23.0633 9.85394 22.8474 9.89948 22.6288 9.90149C22.4102 9.90349 22.1935 9.86191 21.9911 9.77917C21.7888 9.69644 21.605 9.5742 21.4503 9.4196C21.2957 9.265 21.1734 9.08112 21.0906 8.87871C21.0077 8.67629 20.9659 8.45939 20.9677 8.24065C20.9695 8.02191 21.0148 7.80573 21.101 7.6047C21.1872 7.40367 21.3125 7.22184 21.4696 7.0698L24.7617 3.77506C24.0972 3.45635 23.3697 3.2934 22.6328 3.29402ZM14.4026 8.23613C14.4028 6.54725 14.9217 4.89922 15.889 3.51534C16.8563 2.13146 18.2253 1.07862 19.8105 0.499458C21.3957 -0.0797029 23.1205 -0.157186 24.7511 0.277505C26.3818 0.712196 27.8396 1.63805 28.9269 2.92963C30.0142 4.22121 30.6785 5.81607 30.8299 7.49816C30.9812 9.18024 30.6122 10.8682 29.773 12.3334C28.9337 13.7986 27.6646 14.9702 26.1378 15.6894C24.6109 16.4087 22.9001 16.6408 21.237 16.3544L20.0233 17.5712L22.0842 19.6359L23.1157 18.6036L24.2789 17.4394L25.4421 18.6036L29.5572 22.722C30.0093 23.1608 30.3697 23.6853 30.6173 24.2648C30.865 24.8444 30.995 25.4674 30.9999 26.0977C31.0047 26.728 30.8842 27.353 30.6454 27.9362C30.4066 28.5195 30.0543 29.0494 29.6089 29.4951C29.1636 29.9408 28.6341 30.2934 28.0513 30.5324C27.4686 30.7714 26.8441 30.892 26.2143 30.8871C25.5845 30.8823 24.962 30.7522 24.3829 30.5043C23.8038 30.2564 23.2798 29.8957 22.8413 29.4433L18.7262 25.3249L17.563 24.1607L18.7262 22.9966L19.7578 21.9642L17.6947 19.8995L8.15867 29.4433C7.72019 29.8957 7.19617 30.2564 6.6171 30.5043C6.03804 30.7522 5.41549 30.8823 4.7857 30.8871C4.15591 30.892 3.53145 30.7714 2.94866 30.5324C2.36587 30.2934 1.8364 29.9408 1.39106 29.4951C0.945715 29.0494 0.593396 28.5195 0.354605 27.9362C0.115814 27.353 -0.00467874 26.728 0.000138967 26.0977C0.00495668 25.4674 0.134989 24.8444 0.382667 24.2648C0.630346 23.6853 0.990724 23.1608 1.44283 22.722L10.9767 13.1782L5.62377 7.8188L4.26963 9.17404L3.1569 7.50251L0.962185 4.20777L0.213786 3.08316L1.16849 2.12988L2.26585 1.03164L3.21836 0.0761614L4.34205 0.825166L7.63413 3.02166L9.30431 4.13528L7.95236 5.49052L13.3053 10.85L14.5212 9.6331C14.4445 9.17135 14.4049 8.70421 14.4026 8.23613ZM24.2789 22.096L27.2308 25.0503C27.5043 25.3241 27.658 25.6954 27.658 26.0826C27.658 26.4698 27.5043 26.8412 27.2308 27.115C26.9572 27.3888 26.5861 27.5426 26.1993 27.5426C25.8124 27.5426 25.4413 27.3888 25.1677 27.115L22.218 24.1607L24.2789 22.096Z" fill="white"/>
</svg>
